<svg width="640" height="380" viewBox="0 0 640 380" fill="none" xmlns="http://www.w3.org/2000/svg">
<path d="M522.527 409.963C522.527 356.332 501.223 304.899 463.3 266.977C425.378 229.054 373.945 207.75 320.314 207.75C266.684 207.75 215.251 229.054 177.328 266.977C139.406 304.899 118.102 356.332 118.102 409.963" stroke="url(#paint0_linear_1_2064)"/>
<path d="M548.452 409.962C548.452 349.457 524.416 291.429 481.632 248.645C438.848 205.861 380.82 181.825 320.314 181.825C259.808 181.825 201.781 205.861 158.997 248.645C116.213 291.429 92.1768 349.457 92.1768 409.962" stroke="url(#paint1_linear_1_2064)"/>
<path d="M569.84 409.962C569.84 343.784 543.55 280.316 496.755 233.521C449.96 186.726 386.493 160.437 320.314 160.437C254.136 160.437 190.668 186.726 143.873 233.521C97.0782 280.316 70.789 343.784 70.7889 409.962" stroke="url(#paint2_linear_1_2064)"/>
<path d="M596.413 409.962C596.413 336.737 567.324 266.51 515.545 214.731C463.767 162.953 393.54 133.864 320.314 133.864C247.089 133.864 176.862 162.953 125.083 214.731C73.305 266.51 44.2161 336.737 44.2161 409.962" stroke="url(#paint3_linear_1_2064)"/>
<path d="M622.985 409.962C622.985 329.689 591.097 252.703 534.335 195.942C477.573 139.18 400.588 107.291 320.314 107.291C240.041 107.291 163.055 139.18 106.294 195.942C49.5318 252.703 17.6433 329.689 17.6433 409.962" stroke="#DEE0E6"/>
<path d="M649.558 409.962C649.558 322.642 614.87 238.897 553.125 177.152C491.38 115.407 407.635 80.7185 320.314 80.7185C232.993 80.7185 149.249 115.407 87.5038 177.152C25.7586 238.897 -8.92949 322.641 -8.9295 409.962" stroke="url(#paint4_linear_1_2064)"/>
<path d="M676.131 409.962C676.131 315.594 638.643 225.091 571.915 158.362C505.186 91.6334 414.683 54.1456 320.314 54.1456C225.946 54.1456 135.442 91.6333 68.7138 158.362C1.98525 225.091 -35.5025 315.594 -35.5025 409.962" stroke="url(#paint5_linear_1_2064)"/>
<path d="M702.704 409.963C702.704 308.546 662.451 211.284 590.799 139.572C519.148 67.8603 421.968 27.5729 320.638 27.5729C219.308 27.5729 122.128 67.8602 50.4772 139.572C-21.1739 211.284 -61.4272 308.546 -61.4272 409.962" stroke="#DEE0E6"/>
<path d="M728.629 409.962C728.629 301.499 685.61 197.478 609.036 120.782C532.462 44.087 428.606 1.00001 320.314 1C212.023 0.999992 108.166 44.087 31.5925 120.782C-44.9813 197.478 -88 301.499 -88 409.962" stroke="#DEE0E6"/>
<defs>
<linearGradient id="paint0_linear_1_2064" x1="320.314" y1="207.75" x2="320.314" y2="409.963" gradientUnits="userSpaceOnUse">
<stop stop-color="#DEE0E6"/>
<stop offset="0.275" stop-color="#F5F6F9"/>
</linearGradient>
<linearGradient id="paint1_linear_1_2064" x1="320.314" y1="181.825" x2="320.314" y2="409.962" gradientUnits="userSpaceOnUse">
<stop stop-color="#DEE0E6"/>
<stop offset="0.305" stop-color="#F5F6F9"/>
</linearGradient>
<linearGradient id="paint2_linear_1_2064" x1="320.314" y1="160.437" x2="320.314" y2="409.962" gradientUnits="userSpaceOnUse">
<stop stop-color="#DEE0E6"/>
<stop offset="0.325" stop-color="#F5F6F9"/>
</linearGradient>
<linearGradient id="paint3_linear_1_2064" x1="119.428" y1="133.864" x2="542.204" y2="133.864" gradientUnits="userSpaceOnUse">
<stop offset="0.7" stop-color="#DEE0E6"/>
<stop offset="0.88" stop-color="#F35218"/>
</linearGradient>
<linearGradient id="paint4_linear_1_2064" x1="508.917" y1="141.318" x2="103.519" y2="140.345" gradientUnits="userSpaceOnUse">
<stop offset="0.65" stop-color="#DEE0E6"/>
<stop offset="1" stop-color="#F35218"/>
</linearGradient>
<linearGradient id="paint5_linear_1_2064" x1="379.293" y1="54.1456" x2="509.241" y2="54.1456" gradientUnits="userSpaceOnUse">
<stop stop-color="#DEE0E6"/>
<stop offset="0.452245" stop-color="#E7A089"/>
<stop offset="1" stop-color="#F35218"/>
</linearGradient>
</defs>
</svg>
