<svg width="189" height="138" viewBox="0 0 189 138" fill="none" xmlns="http://www.w3.org/2000/svg">
<mask id="mask0_1_1459" style="mask-type:alpha" maskUnits="userSpaceOnUse" x="0" y="0" width="189" height="138">
<path d="M119.649 0C106.822 0.00200668 94.2487 3.57279 83.3365 10.3126C72.4242 17.0525 63.6039 26.6953 57.863 38.1617C53.0915 47.6678 50.5968 58.1528 50.576 68.7883C50.6006 70.4043 50.0139 71.9701 48.9334 73.1723C47.8528 74.3746 46.358 75.1247 44.748 75.2727C43.8871 75.3342 43.0228 75.2175 42.2091 74.9299C41.3954 74.6423 40.6497 74.19 40.0188 73.6013C39.3879 73.0126 38.8853 72.3001 38.5424 71.5084C38.1994 70.7167 38.0236 69.8627 38.0257 69C38.0191 60.2263 39.4336 51.5094 42.2144 43.1877C42.3976 42.6541 42.4334 42.081 42.3182 41.5288C42.2029 40.9766 41.9407 40.4656 41.5593 40.0498C41.1778 39.634 40.6913 39.3288 40.1509 39.1662C39.6104 39.0036 39.0362 38.9898 38.4885 39.1261C27.6155 41.8352 17.9596 48.0979 11.0543 56.9198C4.14904 65.7416 0.390291 76.6168 0.375 87.8182C0.375 115.41 23.7106 138 51.3604 138H119.602C128.894 137.99 138.088 136.107 146.635 132.463C155.181 128.82 162.905 123.49 169.344 116.794C175.783 110.098 180.804 102.172 184.109 93.4912C187.413 84.8103 188.931 75.5525 188.574 66.2714C187.146 29.4348 156.524 0 119.649 0Z" fill="#343330"/>
</mask>
<g mask="url(#mask0_1_1459)">
<circle cx="0.105163" cy="0.523864" r="2.24603" fill="black"/>
<circle cx="9.08929" cy="0.523864" r="2.24603" fill="black"/>
<circle cx="18.0734" cy="0.523864" r="2.24603" fill="black"/>
<circle cx="27.0576" cy="0.523864" r="2.24603" fill="black"/>
<circle cx="36.0417" cy="0.523864" r="2.24603" fill="black"/>
<circle cx="45.0258" cy="0.523864" r="2.24603" fill="black"/>
<circle cx="54.0099" cy="0.523864" r="2.24603" fill="black"/>
<circle cx="62.994" cy="0.523864" r="2.24603" fill="black"/>
<circle cx="71.9782" cy="0.523864" r="2.24603" fill="black"/>
<circle cx="80.9623" cy="0.523864" r="2.24603" fill="black"/>
<circle cx="89.9464" cy="0.523864" r="2.24603" fill="black"/>
<circle cx="98.9306" cy="0.523864" r="2.24603" fill="black"/>
<circle cx="107.915" cy="0.523864" r="2.24603" fill="black"/>
<circle cx="116.899" cy="0.523864" r="2.24603" fill="black"/>
<circle cx="125.883" cy="0.523864" r="2.24603" fill="black"/>
<circle cx="134.867" cy="0.523864" r="2.24603" fill="black"/>
<circle cx="143.851" cy="0.523864" r="2.24603" fill="black"/>
<circle cx="152.835" cy="0.523864" r="2.24603" fill="black"/>
<circle cx="161.819" cy="0.523864" r="2.24603" fill="black"/>
<circle cx="170.804" cy="0.523864" r="2.24603" fill="black"/>
<circle cx="179.788" cy="0.523864" r="2.24603" fill="black"/>
<circle cx="188.772" cy="0.523864" r="2.24603" fill="black"/>
<circle cx="0.105163" cy="9.34918" r="2.24603" fill="black"/>
<circle cx="9.08929" cy="9.34918" r="2.24603" fill="black"/>
<circle cx="18.0734" cy="9.34918" r="2.24603" fill="black"/>
<circle cx="27.0576" cy="9.34918" r="2.24603" fill="black"/>
<circle cx="36.0417" cy="9.34918" r="2.24603" fill="black"/>
<circle cx="45.0258" cy="9.34918" r="2.24603" fill="black"/>
<circle cx="54.0099" cy="9.34918" r="2.24603" fill="black"/>
<circle cx="62.994" cy="9.34918" r="2.24603" fill="black"/>
<circle cx="71.9782" cy="9.34918" r="2.24603" fill="black"/>
<circle cx="80.9623" cy="9.34918" r="2.24603" fill="black"/>
<circle cx="89.9464" cy="9.34918" r="2.24603" fill="black"/>
<circle cx="98.9306" cy="9.34918" r="2.24603" fill="black"/>
<circle cx="107.915" cy="9.34918" r="2.24603" fill="black"/>
<circle cx="116.899" cy="9.34918" r="2.24603" fill="black"/>
<circle cx="125.883" cy="9.34918" r="2.24603" fill="black"/>
<circle cx="134.867" cy="9.34918" r="2.24603" fill="black"/>
<circle cx="143.851" cy="9.34918" r="2.24603" fill="black"/>
<circle cx="152.835" cy="9.34918" r="2.24603" fill="black"/>
<circle cx="161.819" cy="9.34918" r="2.24603" fill="black"/>
<circle cx="170.804" cy="9.34918" r="2.24603" fill="black"/>
<circle cx="179.788" cy="9.34918" r="2.24603" fill="black"/>
<circle cx="188.772" cy="9.34918" r="2.24603" fill="black"/>
<circle cx="0.105163" cy="18.1746" r="2.24603" fill="black"/>
<circle cx="9.08929" cy="18.1746" r="2.24603" fill="black"/>
<circle cx="18.0734" cy="18.1746" r="2.24603" fill="black"/>
<circle cx="27.0576" cy="18.1746" r="2.24603" fill="black"/>
<circle cx="36.0417" cy="18.1746" r="2.24603" fill="black"/>
<circle cx="45.0258" cy="18.1746" r="2.24603" fill="black"/>
<circle cx="54.0099" cy="18.1746" r="2.24603" fill="black"/>
<circle cx="62.994" cy="18.1746" r="2.24603" fill="black"/>
<circle cx="71.9782" cy="18.1746" r="2.24603" fill="black"/>
<circle cx="80.9623" cy="18.1746" r="2.24603" fill="black"/>
<circle cx="89.9464" cy="18.1746" r="2.24603" fill="black"/>
<circle cx="98.9306" cy="18.1746" r="2.24603" fill="black"/>
<circle cx="107.915" cy="18.1746" r="2.24603" fill="black"/>
<circle cx="116.899" cy="18.1746" r="2.24603" fill="black"/>
<circle cx="125.883" cy="18.1746" r="2.24603" fill="black"/>
<circle cx="134.867" cy="18.1746" r="2.24603" fill="black"/>
<circle cx="143.851" cy="18.1746" r="2.24603" fill="black"/>
<circle cx="152.835" cy="18.1746" r="2.24603" fill="black"/>
<circle cx="161.819" cy="18.1746" r="2.24603" fill="black"/>
<circle cx="170.804" cy="18.1746" r="2.24603" fill="black"/>
<circle cx="179.788" cy="18.1746" r="2.24603" fill="black"/>
<circle cx="188.772" cy="18.1746" r="2.24603" fill="black"/>
<circle cx="0.105163" cy="26.9999" r="2.24603" fill="black"/>
<circle cx="9.08929" cy="26.9999" r="2.24603" fill="black"/>
<circle cx="18.0734" cy="26.9999" r="2.24603" fill="black"/>
<circle cx="27.0576" cy="26.9999" r="2.24603" fill="black"/>
<circle cx="36.0417" cy="26.9999" r="2.24603" fill="black"/>
<circle cx="45.0258" cy="26.9999" r="2.24603" fill="black"/>
<circle cx="54.0099" cy="26.9999" r="2.24603" fill="black"/>
<circle cx="62.994" cy="26.9999" r="2.24603" fill="black"/>
<circle cx="71.9782" cy="26.9999" r="2.24603" fill="black"/>
<circle cx="80.9623" cy="26.9999" r="2.24603" fill="black"/>
<circle cx="89.9464" cy="26.9999" r="2.24603" fill="black"/>
<circle cx="98.9306" cy="26.9999" r="2.24603" fill="black"/>
<circle cx="107.915" cy="26.9999" r="2.24603" fill="black"/>
<circle cx="116.899" cy="26.9999" r="2.24603" fill="black"/>
<circle cx="125.883" cy="26.9999" r="2.24603" fill="black"/>
<circle cx="134.867" cy="26.9999" r="2.24603" fill="black"/>
<circle cx="143.851" cy="26.9999" r="2.24603" fill="black"/>
<circle cx="152.835" cy="26.9999" r="2.24603" fill="black"/>
<circle cx="161.819" cy="26.9999" r="2.24603" fill="black"/>
<circle cx="170.804" cy="26.9999" r="2.24603" fill="black"/>
<circle cx="179.788" cy="26.9999" r="2.24603" fill="black"/>
<circle cx="188.772" cy="26.9999" r="2.24603" fill="black"/>
<circle cx="0.105163" cy="35.8254" r="2.24603" fill="black"/>
<circle cx="9.08929" cy="35.8254" r="2.24603" fill="black"/>
<circle cx="18.0734" cy="35.8254" r="2.24603" fill="black"/>
<circle cx="27.0576" cy="35.8254" r="2.24603" fill="black"/>
<circle cx="36.0417" cy="35.8254" r="2.24603" fill="black"/>
<circle cx="45.0258" cy="35.8254" r="2.24603" fill="black"/>
<circle cx="54.0099" cy="35.8254" r="2.24603" fill="black"/>
<circle cx="62.994" cy="35.8254" r="2.24603" fill="black"/>
<circle cx="71.9782" cy="35.8254" r="2.24603" fill="black"/>
<circle cx="80.9623" cy="35.8254" r="2.24603" fill="black"/>
<circle cx="89.9464" cy="35.8254" r="2.24603" fill="black"/>
<circle cx="98.9306" cy="35.8254" r="2.24603" fill="black"/>
<circle cx="107.915" cy="35.8254" r="2.24603" fill="black"/>
<circle cx="116.899" cy="35.8254" r="2.24603" fill="black"/>
<circle cx="125.883" cy="35.8254" r="2.24603" fill="black"/>
<circle cx="134.867" cy="35.8254" r="2.24603" fill="black"/>
<circle cx="143.851" cy="35.8254" r="2.24603" fill="black"/>
<circle cx="152.835" cy="35.8254" r="2.24603" fill="black"/>
<circle cx="161.819" cy="35.8254" r="2.24603" fill="black"/>
<circle cx="170.804" cy="35.8254" r="2.24603" fill="black"/>
<circle cx="179.788" cy="35.8254" r="2.24603" fill="black"/>
<circle cx="188.772" cy="35.8254" r="2.24603" fill="black"/>
<circle cx="0.105163" cy="44.6508" r="2.24603" fill="black"/>
<circle cx="9.08929" cy="44.6508" r="2.24603" fill="black"/>
<circle cx="18.0734" cy="44.6508" r="2.24603" fill="black"/>
<circle cx="27.0576" cy="44.6508" r="2.24603" fill="black"/>
<circle cx="36.0417" cy="44.6508" r="2.24603" fill="black"/>
<circle cx="45.0258" cy="44.6508" r="2.24603" fill="black"/>
<circle cx="54.0099" cy="44.6508" r="2.24603" fill="black"/>
<circle cx="62.994" cy="44.6508" r="2.24603" fill="black"/>
<circle cx="71.9782" cy="44.6508" r="2.24603" fill="black"/>
<circle cx="80.9623" cy="44.6508" r="2.24603" fill="black"/>
<circle cx="89.9464" cy="44.6508" r="2.24603" fill="black"/>
<circle cx="98.9306" cy="44.6508" r="2.24603" fill="black"/>
<circle cx="107.915" cy="44.6508" r="2.24603" fill="black"/>
<circle cx="116.899" cy="44.6508" r="2.24603" fill="black"/>
<circle cx="125.883" cy="44.6508" r="2.24603" fill="black"/>
<circle cx="134.867" cy="44.6508" r="2.24603" fill="black"/>
<circle cx="143.851" cy="44.6508" r="2.24603" fill="black"/>
<circle cx="152.835" cy="44.6508" r="2.24603" fill="black"/>
<circle cx="161.819" cy="44.6508" r="2.24603" fill="black"/>
<circle cx="170.804" cy="44.6508" r="2.24603" fill="black"/>
<circle cx="179.788" cy="44.6508" r="2.24603" fill="black"/>
<circle cx="188.772" cy="44.6508" r="2.24603" fill="black"/>
<circle cx="0.105163" cy="53.4761" r="2.24603" fill="black"/>
<circle cx="9.08929" cy="53.4761" r="2.24603" fill="black"/>
<circle cx="18.0734" cy="53.4761" r="2.24603" fill="black"/>
<circle cx="27.0576" cy="53.4761" r="2.24603" fill="black"/>
<circle cx="36.0417" cy="53.4761" r="2.24603" fill="black"/>
<circle cx="45.0258" cy="53.4761" r="2.24603" fill="black"/>
<circle cx="54.0099" cy="53.4761" r="2.24603" fill="black"/>
<circle cx="62.994" cy="53.4761" r="2.24603" fill="black"/>
<circle cx="71.9782" cy="53.4761" r="2.24603" fill="black"/>
<circle cx="80.9623" cy="53.4761" r="2.24603" fill="black"/>
<circle cx="89.9464" cy="53.4761" r="2.24603" fill="black"/>
<circle cx="98.9306" cy="53.4761" r="2.24603" fill="black"/>
<circle cx="107.915" cy="53.4761" r="2.24603" fill="black"/>
<circle cx="116.899" cy="53.4761" r="2.24603" fill="black"/>
<circle cx="125.883" cy="53.4761" r="2.24603" fill="black"/>
<circle cx="134.867" cy="53.4761" r="2.24603" fill="black"/>
<circle cx="143.851" cy="53.4761" r="2.24603" fill="black"/>
<circle cx="152.835" cy="53.4761" r="2.24603" fill="black"/>
<circle cx="161.819" cy="53.4761" r="2.24603" fill="black"/>
<circle cx="170.804" cy="53.4761" r="2.24603" fill="black"/>
<circle cx="179.788" cy="53.4761" r="2.24603" fill="black"/>
<circle cx="188.772" cy="53.4761" r="2.24603" fill="black"/>
<circle cx="0.105163" cy="62.3016" r="2.24603" fill="black"/>
<circle cx="9.08929" cy="62.3016" r="2.24603" fill="black"/>
<circle cx="18.0734" cy="62.3016" r="2.24603" fill="black"/>
<circle cx="27.0576" cy="62.3016" r="2.24603" fill="black"/>
<circle cx="36.0417" cy="62.3016" r="2.24603" fill="black"/>
<circle cx="45.0258" cy="62.3016" r="2.24603" fill="black"/>
<circle cx="54.0099" cy="62.3016" r="2.24603" fill="black"/>
<circle cx="62.994" cy="62.3016" r="2.24603" fill="black"/>
<circle cx="71.9782" cy="62.3016" r="2.24603" fill="black"/>
<circle cx="80.9623" cy="62.3016" r="2.24603" fill="black"/>
<circle cx="89.9464" cy="62.3016" r="2.24603" fill="black"/>
<circle cx="98.9306" cy="62.3016" r="2.24603" fill="black"/>
<circle cx="107.915" cy="62.3016" r="2.24603" fill="black"/>
<circle cx="116.899" cy="62.3016" r="2.24603" fill="black"/>
<circle cx="125.883" cy="62.3016" r="2.24603" fill="black"/>
<circle cx="134.867" cy="62.3016" r="2.24603" fill="black"/>
<circle cx="143.851" cy="62.3016" r="2.24603" fill="black"/>
<circle cx="152.835" cy="62.3016" r="2.24603" fill="black"/>
<circle cx="161.819" cy="62.3016" r="2.24603" fill="black"/>
<circle cx="170.804" cy="62.3016" r="2.24603" fill="black"/>
<circle cx="179.788" cy="62.3016" r="2.24603" fill="black"/>
<circle cx="188.772" cy="62.3016" r="2.24603" fill="black"/>
<circle cx="0.105163" cy="71.127" r="2.24603" fill="black"/>
<circle cx="9.08929" cy="71.127" r="2.24603" fill="black"/>
<circle cx="18.0734" cy="71.127" r="2.24603" fill="black"/>
<circle cx="27.0576" cy="71.127" r="2.24603" fill="black"/>
<circle cx="36.0417" cy="71.127" r="2.24603" fill="black"/>
<circle cx="45.0258" cy="71.127" r="2.24603" fill="black"/>
<circle cx="54.0099" cy="71.127" r="2.24603" fill="black"/>
<circle cx="62.994" cy="71.127" r="2.24603" fill="black"/>
<circle cx="71.9782" cy="71.127" r="2.24603" fill="black"/>
<circle cx="80.9623" cy="71.127" r="2.24603" fill="black"/>
<circle cx="89.9464" cy="71.127" r="2.24603" fill="black"/>
<circle cx="98.9306" cy="71.127" r="2.24603" fill="black"/>
<circle cx="107.915" cy="71.127" r="2.24603" fill="black"/>
<circle cx="116.899" cy="71.127" r="2.24603" fill="black"/>
<circle cx="125.883" cy="71.127" r="2.24603" fill="black"/>
<circle cx="134.867" cy="71.127" r="2.24603" fill="black"/>
<circle cx="143.851" cy="71.127" r="2.24603" fill="black"/>
<circle cx="152.835" cy="71.127" r="2.24603" fill="black"/>
<circle cx="161.819" cy="71.127" r="2.24603" fill="black"/>
<circle cx="170.804" cy="71.127" r="2.24603" fill="black"/>
<circle cx="179.788" cy="71.127" r="2.24603" fill="black"/>
<circle cx="188.772" cy="71.127" r="2.24603" fill="black"/>
<circle cx="0.105163" cy="79.9523" r="2.24603" fill="black"/>
<circle cx="9.08929" cy="79.9523" r="2.24603" fill="black"/>
<circle cx="18.0734" cy="79.9523" r="2.24603" fill="black"/>
<circle cx="27.0576" cy="79.9523" r="2.24603" fill="black"/>
<circle cx="36.0417" cy="79.9523" r="2.24603" fill="black"/>
<circle cx="45.0258" cy="79.9523" r="2.24603" fill="black"/>
<circle cx="54.0099" cy="79.9523" r="2.24603" fill="black"/>
<circle cx="62.994" cy="79.9523" r="2.24603" fill="black"/>
<circle cx="71.9782" cy="79.9523" r="2.24603" fill="black"/>
<circle cx="80.9623" cy="79.9523" r="2.24603" fill="black"/>
<circle cx="89.9464" cy="79.9523" r="2.24603" fill="black"/>
<circle cx="98.9306" cy="79.9523" r="2.24603" fill="black"/>
<circle cx="107.915" cy="79.9523" r="2.24603" fill="black"/>
<circle cx="116.899" cy="79.9523" r="2.24603" fill="black"/>
<circle cx="125.883" cy="79.9523" r="2.24603" fill="black"/>
<circle cx="134.867" cy="79.9523" r="2.24603" fill="black"/>
<circle cx="143.851" cy="79.9523" r="2.24603" fill="black"/>
<circle cx="152.835" cy="79.9523" r="2.24603" fill="black"/>
<circle cx="161.819" cy="79.9523" r="2.24603" fill="black"/>
<circle cx="170.804" cy="79.9523" r="2.24603" fill="black"/>
<circle cx="179.788" cy="79.9523" r="2.24603" fill="black"/>
<circle cx="188.772" cy="79.9523" r="2.24603" fill="black"/>
<circle cx="0.105163" cy="88.7778" r="2.24603" fill="black"/>
<circle cx="9.08929" cy="88.7778" r="2.24603" fill="black"/>
<circle cx="18.0734" cy="88.7778" r="2.24603" fill="black"/>
<circle cx="27.0576" cy="88.7778" r="2.24603" fill="black"/>
<circle cx="36.0417" cy="88.7778" r="2.24603" fill="black"/>
<circle cx="45.0258" cy="88.7778" r="2.24603" fill="black"/>
<circle cx="54.0099" cy="88.7778" r="2.24603" fill="black"/>
<circle cx="62.994" cy="88.7778" r="2.24603" fill="black"/>
<circle cx="71.9782" cy="88.7778" r="2.24603" fill="black"/>
<circle cx="80.9623" cy="88.7778" r="2.24603" fill="black"/>
<circle cx="89.9464" cy="88.7778" r="2.24603" fill="black"/>
<circle cx="98.9306" cy="88.7778" r="2.24603" fill="black"/>
<circle cx="107.915" cy="88.7778" r="2.24603" fill="black"/>
<circle cx="116.899" cy="88.7778" r="2.24603" fill="black"/>
<circle cx="125.883" cy="88.7778" r="2.24603" fill="black"/>
<circle cx="134.867" cy="88.7778" r="2.24603" fill="black"/>
<circle cx="143.851" cy="88.7778" r="2.24603" fill="black"/>
<circle cx="152.835" cy="88.7778" r="2.24603" fill="black"/>
<circle cx="161.819" cy="88.7778" r="2.24603" fill="black"/>
<circle cx="170.804" cy="88.7778" r="2.24603" fill="black"/>
<circle cx="179.788" cy="88.7778" r="2.24603" fill="black"/>
<circle cx="188.772" cy="88.7778" r="2.24603" fill="black"/>
<circle cx="0.105163" cy="97.6032" r="2.24603" fill="black"/>
<circle cx="9.08929" cy="97.6032" r="2.24603" fill="black"/>
<circle cx="18.0734" cy="97.6032" r="2.24603" fill="black"/>
<circle cx="27.0576" cy="97.6032" r="2.24603" fill="black"/>
<circle cx="36.0417" cy="97.6032" r="2.24603" fill="black"/>
<circle cx="45.0258" cy="97.6032" r="2.24603" fill="black"/>
<circle cx="54.0099" cy="97.6032" r="2.24603" fill="black"/>
<circle cx="62.994" cy="97.6032" r="2.24603" fill="black"/>
<circle cx="71.9782" cy="97.6032" r="2.24603" fill="black"/>
<circle cx="80.9623" cy="97.6032" r="2.24603" fill="black"/>
<circle cx="89.9464" cy="97.6032" r="2.24603" fill="black"/>
<circle cx="98.9306" cy="97.6032" r="2.24603" fill="black"/>
<circle cx="107.915" cy="97.6032" r="2.24603" fill="black"/>
<circle cx="116.899" cy="97.6032" r="2.24603" fill="black"/>
<circle cx="125.883" cy="97.6032" r="2.24603" fill="black"/>
<circle cx="134.867" cy="97.6032" r="2.24603" fill="black"/>
<circle cx="143.851" cy="97.6032" r="2.24603" fill="black"/>
<circle cx="152.835" cy="97.6032" r="2.24603" fill="black"/>
<circle cx="161.819" cy="97.6032" r="2.24603" fill="black"/>
<circle cx="170.804" cy="97.6032" r="2.24603" fill="black"/>
<circle cx="179.788" cy="97.6032" r="2.24603" fill="black"/>
<circle cx="188.772" cy="97.6032" r="2.24603" fill="black"/>
<circle cx="0.105163" cy="106.429" r="2.24603" fill="black"/>
<circle cx="9.08929" cy="106.429" r="2.24603" fill="black"/>
<circle cx="18.0734" cy="106.429" r="2.24603" fill="black"/>
<circle cx="27.0576" cy="106.429" r="2.24603" fill="black"/>
<circle cx="36.0417" cy="106.429" r="2.24603" fill="black"/>
<circle cx="45.0258" cy="106.429" r="2.24603" fill="black"/>
<circle cx="54.0099" cy="106.429" r="2.24603" fill="black"/>
<circle cx="62.994" cy="106.429" r="2.24603" fill="black"/>
<circle cx="71.9782" cy="106.429" r="2.24603" fill="black"/>
<circle cx="80.9623" cy="106.429" r="2.24603" fill="black"/>
<circle cx="89.9464" cy="106.429" r="2.24603" fill="black"/>
<circle cx="98.9306" cy="106.429" r="2.24603" fill="black"/>
<circle cx="107.915" cy="106.429" r="2.24603" fill="black"/>
<circle cx="116.899" cy="106.429" r="2.24603" fill="black"/>
<circle cx="125.883" cy="106.429" r="2.24603" fill="black"/>
<circle cx="134.867" cy="106.429" r="2.24603" fill="black"/>
<circle cx="143.851" cy="106.429" r="2.24603" fill="black"/>
<circle cx="152.835" cy="106.429" r="2.24603" fill="black"/>
<circle cx="161.819" cy="106.429" r="2.24603" fill="black"/>
<circle cx="170.804" cy="106.429" r="2.24603" fill="black"/>
<circle cx="179.788" cy="106.429" r="2.24603" fill="black"/>
<circle cx="188.772" cy="106.429" r="2.24603" fill="black"/>
<circle cx="0.105163" cy="115.254" r="2.24603" fill="black"/>
<circle cx="9.08929" cy="115.254" r="2.24603" fill="black"/>
<circle cx="18.0734" cy="115.254" r="2.24603" fill="black"/>
<circle cx="27.0576" cy="115.254" r="2.24603" fill="black"/>
<circle cx="36.0417" cy="115.254" r="2.24603" fill="black"/>
<circle cx="45.0258" cy="115.254" r="2.24603" fill="black"/>
<circle cx="54.0099" cy="115.254" r="2.24603" fill="black"/>
<circle cx="62.994" cy="115.254" r="2.24603" fill="black"/>
<circle cx="71.9782" cy="115.254" r="2.24603" fill="black"/>
<circle cx="80.9623" cy="115.254" r="2.24603" fill="black"/>
<circle cx="89.9464" cy="115.254" r="2.24603" fill="black"/>
<circle cx="98.9306" cy="115.254" r="2.24603" fill="black"/>
<circle cx="107.915" cy="115.254" r="2.24603" fill="black"/>
<circle cx="116.899" cy="115.254" r="2.24603" fill="black"/>
<circle cx="125.883" cy="115.254" r="2.24603" fill="black"/>
<circle cx="134.867" cy="115.254" r="2.24603" fill="black"/>
<circle cx="143.851" cy="115.254" r="2.24603" fill="black"/>
<circle cx="152.835" cy="115.254" r="2.24603" fill="black"/>
<circle cx="161.819" cy="115.254" r="2.24603" fill="black"/>
<circle cx="170.804" cy="115.254" r="2.24603" fill="black"/>
<circle cx="179.788" cy="115.254" r="2.24603" fill="black"/>
<circle cx="188.772" cy="115.254" r="2.24603" fill="black"/>
<circle cx="0.105163" cy="124.079" r="2.24603" fill="black"/>
<circle cx="9.08929" cy="124.079" r="2.24603" fill="black"/>
<circle cx="18.0734" cy="124.079" r="2.24603" fill="black"/>
<circle cx="27.0576" cy="124.079" r="2.24603" fill="black"/>
<circle cx="36.0417" cy="124.079" r="2.24603" fill="black"/>
<circle cx="45.0258" cy="124.079" r="2.24603" fill="black"/>
<circle cx="54.0099" cy="124.079" r="2.24603" fill="black"/>
<circle cx="62.994" cy="124.079" r="2.24603" fill="black"/>
<circle cx="71.9782" cy="124.079" r="2.24603" fill="black"/>
<circle cx="80.9623" cy="124.079" r="2.24603" fill="black"/>
<circle cx="89.9464" cy="124.079" r="2.24603" fill="black"/>
<circle cx="98.9306" cy="124.079" r="2.24603" fill="black"/>
<circle cx="107.915" cy="124.079" r="2.24603" fill="black"/>
<circle cx="116.899" cy="124.079" r="2.24603" fill="black"/>
<circle cx="125.883" cy="124.079" r="2.24603" fill="black"/>
<circle cx="134.867" cy="124.079" r="2.24603" fill="black"/>
<circle cx="143.851" cy="124.079" r="2.24603" fill="black"/>
<circle cx="152.835" cy="124.079" r="2.24603" fill="black"/>
<circle cx="161.819" cy="124.079" r="2.24603" fill="black"/>
<circle cx="170.804" cy="124.079" r="2.24603" fill="black"/>
<circle cx="179.788" cy="124.079" r="2.24603" fill="black"/>
<circle cx="188.772" cy="124.079" r="2.24603" fill="black"/>
<circle cx="0.105163" cy="132.905" r="2.24603" fill="black"/>
<circle cx="9.08929" cy="132.905" r="2.24603" fill="black"/>
<circle cx="18.0734" cy="132.905" r="2.24603" fill="black"/>
<circle cx="27.0576" cy="132.905" r="2.24603" fill="black"/>
<circle cx="36.0417" cy="132.905" r="2.24603" fill="black"/>
<circle cx="45.0258" cy="132.905" r="2.24603" fill="black"/>
<circle cx="54.0099" cy="132.905" r="2.24603" fill="black"/>
<circle cx="62.994" cy="132.905" r="2.24603" fill="black"/>
<circle cx="71.9782" cy="132.905" r="2.24603" fill="black"/>
<circle cx="80.9623" cy="132.905" r="2.24603" fill="black"/>
<circle cx="89.9464" cy="132.905" r="2.24603" fill="black"/>
<circle cx="98.9306" cy="132.905" r="2.24603" fill="black"/>
<circle cx="107.915" cy="132.905" r="2.24603" fill="black"/>
<circle cx="116.899" cy="132.905" r="2.24603" fill="black"/>
<circle cx="125.883" cy="132.905" r="2.24603" fill="black"/>
<circle cx="134.867" cy="132.905" r="2.24603" fill="black"/>
<circle cx="143.851" cy="132.905" r="2.24603" fill="black"/>
<circle cx="152.835" cy="132.905" r="2.24603" fill="black"/>
<circle cx="161.819" cy="132.905" r="2.24603" fill="black"/>
<circle cx="170.804" cy="132.905" r="2.24603" fill="black"/>
<circle cx="179.788" cy="132.905" r="2.24603" fill="black"/>
<circle cx="188.772" cy="132.905" r="2.24603" fill="black"/>
</g>
</svg>
