<svg width="114" height="24" viewBox="0 0 114 24" fill="none" xmlns="http://www.w3.org/2000/svg">
<g clip-path="url(#clip0_98_268)">
<path d="M13.2188 10.7869C13.8869 11.1819 14.1123 12.0445 13.7173 12.7146C13.3243 13.3848 12.4617 13.6103 11.7895 13.2131C11.1193 12.8201 10.898 11.9576 11.2889 11.2874C11.684 10.6172 12.5486 10.3939 13.2188 10.7869Z" fill="#F35218"/>
<path d="M8.64962 8.10001C9.31979 8.49508 9.54318 9.35762 9.15017 10.0278C8.7551 10.698 7.8905 10.9214 7.2224 10.5284C6.55223 10.1333 6.32884 9.26868 6.71977 8.60057C7.11277 7.9304 7.97737 7.70701 8.64755 8.10001H8.64962Z" fill="#F35218"/>
<path d="M17.7879 13.4717C18.4581 13.8647 18.6836 14.7273 18.2885 15.3995C17.8955 16.0717 17.0309 16.2951 16.3628 15.9001C15.6926 15.505 15.4692 14.6404 15.8622 13.9723C16.2552 13.3042 17.1157 13.0787 17.7879 13.4717Z" fill="#F35218"/>
<path d="M4.08046 5.41519C4.75064 5.80819 4.97196 6.67279 4.58102 7.34297C4.18595 8.01314 3.32342 8.23653 2.65325 7.84353C1.98308 7.44846 1.75762 6.58592 2.15269 5.91575C2.54776 5.24558 3.41236 5.02219 4.08253 5.41726L4.08046 5.41519Z" fill="#F35218"/>
<path d="M22.3343 16.1648C23.0066 16.5598 23.23 17.4224 22.8349 18.0905C22.444 18.7627 21.5814 18.9861 20.9092 18.591C20.2411 18.196 20.0156 17.3355 20.4128 16.6632C20.8058 15.9951 21.6683 15.7697 22.3364 16.1648H22.3343Z" fill="#F35218"/>
<path d="M8.59169 15.8442C9.26807 15.4616 9.50594 14.6032 9.12121 13.9268C8.73648 13.2483 7.88015 13.0125 7.20378 13.3931C6.5274 13.7778 6.28746 14.6362 6.67012 15.3126C7.05278 15.9911 7.91325 16.2289 8.59169 15.8442Z" fill="#F35218"/>
<path d="M17.8148 10.6214C18.4912 10.2387 18.7291 9.38034 18.3444 8.7019C17.9617 8.02552 17.1012 7.78765 16.4228 8.17031C15.7485 8.55297 15.5106 9.41137 15.8953 10.0898C16.278 10.7662 17.1364 11.0041 17.8148 10.6214Z" fill="#F35218"/>
<path d="M3.98118 18.4545C4.65548 18.0719 4.89542 17.2135 4.51276 16.5371C4.12803 15.8607 3.26964 15.6228 2.59119 16.0055C1.91481 16.3902 1.67901 17.2486 2.0596 17.925C2.44226 18.6035 3.30273 18.8413 3.98118 18.4545Z" fill="#F35218"/>
<path d="M22.4047 8.00273C23.0811 7.61801 23.321 6.75961 22.9363 6.08323C22.5536 5.40685 21.6931 5.16899 21.0147 5.55165C20.3404 5.9343 20.1005 6.79477 20.4852 7.47115C20.8678 8.14546 21.7262 8.38539 22.4047 8.00273Z" fill="#F35218"/>
<path d="M13.9572 6.71823C13.951 7.49596 13.3139 8.12063 12.5383 8.11649C11.7585 8.11029 11.1359 7.47528 11.1379 6.69755C11.1462 5.91982 11.7833 5.29308 12.5569 5.29929C13.3367 5.30343 13.9634 5.93637 13.9572 6.71823Z" fill="#F35218"/>
<path d="M13.8745 17.3169C13.8703 18.0946 13.2353 18.7214 12.4576 18.7152C11.6799 18.711 11.0552 18.076 11.0593 17.2962C11.0656 16.5164 11.7006 15.8918 12.4783 15.9C13.254 15.9042 13.8807 16.5392 13.8745 17.3169Z" fill="#F35218"/>
<path d="M13.9965 1.42103C13.9903 2.19669 13.3553 2.82343 12.5776 2.81722C11.8019 2.81102 11.1731 2.17601 11.1814 1.40035C11.1855 0.62055 11.8185 -0.00411643 12.5983 2.0429e-05C13.376 0.00622572 14.0007 0.641234 13.9965 1.42103Z" fill="#F35218"/>
<path d="M13.8228 22.5997C13.8145 23.3774 13.1795 24.0042 12.4018 24C11.6261 23.9938 10.9994 23.3588 11.0056 22.579C11.0118 21.8033 11.6468 21.1745 12.4224 21.1828C13.2022 21.189 13.8269 21.824 13.8228 22.5997Z" fill="#F35218"/>
<path d="M23.0935 13.3889C23.8691 13.3869 24.5021 12.756 24.5 11.9803C24.5 11.2026 23.8691 10.5717 23.0914 10.5717C22.3137 10.5717 21.6828 11.2026 21.6828 11.9803C21.6849 12.7581 22.3178 13.3889 23.0935 13.3889Z" fill="#F35218"/>
<path d="M8.59584 2.05604C8.97229 2.73655 8.72615 3.59495 8.04563 3.96934C7.36512 4.34786 6.50672 4.10172 6.13027 3.42327C5.75381 2.74483 5.99789 1.88643 6.6784 1.50997C7.35892 1.13145 8.21525 1.37553 8.59584 2.05604Z" fill="#F35218"/>
<path d="M18.8635 20.5851C19.24 21.2656 18.9938 22.1219 18.3154 22.4984C17.6349 22.8769 16.7785 22.6307 16.4 21.9502C16.0236 21.2697 16.2656 20.4134 16.9481 20.0349C17.6266 19.6584 18.485 19.9025 18.8614 20.583L18.8635 20.5851Z" fill="#F35218"/>
<path d="M19.1138 3.59695C18.7167 4.26919 17.8541 4.48845 17.186 4.09545C16.5159 3.69831 16.2945 2.83577 16.6917 2.1656C17.0867 1.49543 17.9513 1.27411 18.6215 1.66918C19.2896 2.06631 19.513 2.92885 19.1159 3.59695H19.1138Z" fill="#F35218"/>
<path d="M8.32073 21.8261C7.92566 22.4963 7.05899 22.7176 6.39089 22.3204C5.72071 21.9254 5.50146 21.0628 5.89653 20.3927C6.2916 19.7246 7.1562 19.5032 7.82431 19.8983C8.49241 20.2934 8.7158 21.1559 8.31866 21.824L8.32073 21.8261Z" fill="#F35218"/>
<path d="M1.91067 13.4282C2.6884 13.4282 3.3172 12.7953 3.3172 12.0175C3.3172 11.2377 2.68426 10.6089 1.9086 10.611C1.13087 10.611 0.5 11.2419 0.5 12.0217C0.5 12.8015 1.13294 13.4282 1.91067 13.4282Z" fill="#F35218"/>
<path d="M30.5915 8.11012H38.102V10.0855H35.5806V16.1067H33.1088V10.0855H30.5894V8.11012H30.5915Z" fill="#333333"/>
<path d="M39.3182 8.11012H41.7941V16.1067H39.3182V8.11012Z" fill="#333333"/>
<path d="M43.1386 13.4612L45.4884 13.3143C45.538 13.697 45.6435 13.9865 45.7986 14.1872C46.0531 14.5119 46.4171 14.6733 46.8908 14.6733C47.2445 14.6733 47.5154 14.5905 47.7057 14.4251C47.8981 14.2596 47.9932 14.0693 47.9932 13.85C47.9932 13.6432 47.9022 13.457 47.7202 13.2936C47.5382 13.1302 47.1183 12.9751 46.4564 12.8303C45.3725 12.5862 44.5989 12.2615 44.1377 11.8602C43.6723 11.4569 43.4406 10.9418 43.4406 10.3151C43.4406 9.90346 43.5585 9.51667 43.7964 9.15055C44.0343 8.78444 44.3921 8.49693 44.872 8.29009C45.3498 8.08118 46.0055 7.97569 46.837 7.97569C47.8588 7.97569 48.6386 8.16598 49.1743 8.5445C49.7121 8.92509 50.0306 9.52908 50.132 10.3585L47.8029 10.495C47.7388 10.1351 47.6106 9.8745 47.412 9.70903C47.2134 9.54562 46.9404 9.46495 46.5908 9.46495C46.3033 9.46495 46.0861 9.52494 45.9414 9.64698C45.7945 9.76901 45.7221 9.91794 45.7221 10.0917C45.7221 10.2199 45.7821 10.3337 45.9021 10.435C46.0179 10.5405 46.2951 10.6398 46.7315 10.7308C47.8112 10.9625 48.5848 11.1983 49.0523 11.4382C49.5197 11.6761 49.859 11.9698 50.072 12.3235C50.2851 12.6772 50.3906 13.0702 50.3906 13.5087C50.3906 14.0217 50.2499 14.4933 49.9665 14.9277C49.6831 15.36 49.286 15.6889 48.7772 15.9123C48.2683 16.1356 47.6271 16.2473 46.8515 16.2473C45.4925 16.2473 44.5493 15.9846 44.026 15.4613C43.5027 14.938 43.2069 14.272 43.1366 13.4653L43.1386 13.4612Z" fill="#333333"/>
<path d="M56.5524 14.787H53.7455L53.3567 16.1067H50.8332L53.8386 8.11012H56.5338L59.5392 16.1067H56.9516L56.5503 14.787H56.5524ZM56.0394 13.0578L55.1562 10.1848L54.2833 13.0578H56.0394Z" fill="#333333"/>
<path d="M60.3418 8.11012H62.6501L65.6618 12.5345V8.11012H67.9929V16.1067H65.6618L62.6667 11.7154V16.1067H60.3438V8.11012H60.3418Z" fill="#333333"/>
<path d="M69.627 8.11012H76.2501V9.81864H72.1029V11.0887H75.9501V12.7206H72.1029V14.2968H76.37V16.1067H69.629V8.11012H69.627Z" fill="#333333"/>
<path d="M81.4274 8.11012H83.8971V14.1396H87.7526V16.1087H81.4253V8.11218L81.4274 8.11012Z" fill="#333333"/>
<path d="M93.7945 14.787H90.9876L90.5988 16.1067H88.0753L91.0807 8.11012H93.7759L96.7813 16.1067H94.1937L93.7945 14.787ZM93.2815 13.0578L92.3983 10.1848L91.5254 13.0578H93.2815Z" fill="#333333"/>
<path d="M97.5735 8.11012H102.199C102.97 8.11012 103.562 8.30248 103.975 8.68307C104.387 9.06573 104.594 9.53733 104.594 10.0999C104.594 10.5736 104.447 10.979 104.151 11.3162C103.955 11.5416 103.667 11.7195 103.291 11.8519C103.866 11.9884 104.288 12.2263 104.559 12.5634C104.83 12.9006 104.966 13.3226 104.966 13.8314C104.966 14.2471 104.871 14.6195 104.676 14.9504C104.484 15.2814 104.219 15.5441 103.886 15.7364C103.677 15.8564 103.365 15.9433 102.947 15.9991C102.391 16.0715 102.021 16.1087 101.841 16.1087H97.5756V8.11218L97.5735 8.11012ZM100.066 11.2459H101.139C101.526 11.2459 101.793 11.1797 101.944 11.0473C102.095 10.9149 102.172 10.7225 102.172 10.4723C102.172 10.2406 102.095 10.0586 101.944 9.92827C101.793 9.79795 101.53 9.73176 101.156 9.73176H100.064V11.2479L100.066 11.2459ZM100.066 14.3878H101.328C101.752 14.3878 102.052 14.3113 102.227 14.1603C102.401 14.0093 102.49 13.8066 102.49 13.5522C102.49 13.3164 102.403 13.1261 102.232 12.9813C102.06 12.8385 101.756 12.7662 101.324 12.7662H100.068V14.3857L100.066 14.3878Z" fill="#333333"/>
<path d="M105.827 13.4612L108.178 13.3143C108.228 13.697 108.331 13.9865 108.489 14.1872C108.741 14.5119 109.107 14.6733 109.579 14.6733C109.93 14.6733 110.203 14.5905 110.394 14.4251C110.586 14.2596 110.681 14.0693 110.681 13.85C110.681 13.6432 110.59 13.457 110.408 13.2936C110.226 13.1302 109.804 12.9751 109.142 12.8303C108.058 12.5862 107.285 12.2615 106.824 11.8602C106.358 11.4569 106.124 10.9418 106.124 10.3151C106.124 9.90346 106.244 9.51667 106.482 9.15055C106.72 8.78444 107.08 8.49693 107.556 8.29009C108.034 8.08118 108.691 7.97569 109.523 7.97569C110.545 7.97569 111.324 8.16598 111.86 8.5445C112.396 8.92509 112.714 9.52908 112.818 10.3585L110.489 10.495C110.427 10.1351 110.296 9.8745 110.098 9.70903C109.899 9.54562 109.626 9.46495 109.277 9.46495C108.989 9.46495 108.772 9.52494 108.627 9.64698C108.48 9.76901 108.408 9.91794 108.408 10.0917C108.408 10.2199 108.468 10.3337 108.588 10.435C108.704 10.5405 108.981 10.6398 109.417 10.7308C110.497 10.9625 111.271 11.1983 111.738 11.4382C112.206 11.6761 112.545 11.9698 112.76 12.3235C112.971 12.6772 113.078 13.0702 113.078 13.5087C113.078 14.0217 112.936 14.4933 112.652 14.9277C112.369 15.36 111.972 15.6889 111.463 15.9123C110.954 16.1356 110.313 16.2473 109.537 16.2473C108.178 16.2473 107.235 15.9846 106.712 15.4613C106.189 14.938 105.891 14.272 105.822 13.4653L105.827 13.4612Z" fill="#333333"/>
</g>
<defs>
<clipPath id="clip0_98_268">
<rect width="112.583" height="24" fill="white" transform="translate(0.5)"/>
</clipPath>
</defs>
</svg>
