<svg width="143" height="48" viewBox="0 0 143 48" fill="none" xmlns="http://www.w3.org/2000/svg">
<g filter="url(#filter0_b_54_267)">
<rect width="143" height="48" rx="24" fill="#F7F7F7" fill-opacity="0.6"/>
<g clip-path="url(#clip0_54_267)">
<path d="M27.2188 22.7869C27.8869 23.1819 28.1123 24.0445 27.7173 24.7146C27.3243 25.3848 26.4617 25.6103 25.7895 25.2131C25.1193 24.8201 24.898 23.9576 25.2889 23.2874C25.684 22.6172 26.5486 22.3939 27.2188 22.7869Z" fill="#F35218"/>
<path d="M22.6496 20.1C23.3198 20.4951 23.5432 21.3576 23.1502 22.0278C22.7551 22.698 21.8905 22.9214 21.2224 22.5284C20.5522 22.1333 20.3288 21.2687 20.7198 20.6006C21.1128 19.9304 21.9774 19.707 22.6475 20.1H22.6496Z" fill="#F35218"/>
<path d="M31.7879 25.4717C32.4581 25.8647 32.6836 26.7273 32.2885 27.3995C31.8955 28.0717 31.0309 28.2951 30.3628 27.9001C29.6926 27.505 29.4692 26.6404 29.8622 25.9723C30.2552 25.3042 31.1157 25.0787 31.7879 25.4717Z" fill="#F35218"/>
<path d="M18.0805 17.4152C18.7506 17.8082 18.972 18.6728 18.581 19.343C18.186 20.0131 17.3234 20.2365 16.6532 19.8435C15.9831 19.4485 15.7576 18.5859 16.1527 17.9157C16.5478 17.2456 17.4124 17.0222 18.0825 17.4173L18.0805 17.4152Z" fill="#F35218"/>
<path d="M36.3343 28.1648C37.0066 28.5598 37.23 29.4224 36.8349 30.0905C36.444 30.7627 35.5814 30.9861 34.9092 30.591C34.2411 30.196 34.0156 29.3355 34.4128 28.6632C34.8058 27.9951 35.6683 27.7697 36.3364 28.1648H36.3343Z" fill="#F35218"/>
<path d="M22.5917 27.8442C23.2681 27.4616 23.5059 26.6032 23.1212 25.9268C22.7365 25.2483 21.8802 25.0125 21.2038 25.3931C20.5274 25.7778 20.2875 26.6362 20.6701 27.3126C21.0528 27.9911 21.9132 28.2289 22.5917 27.8442Z" fill="#F35218"/>
<path d="M31.8148 22.6214C32.4912 22.2387 32.7291 21.3803 32.3444 20.7019C31.9617 20.0255 31.1012 19.7876 30.4228 20.1703C29.7485 20.553 29.5106 21.4114 29.8953 22.0898C30.278 22.7662 31.1364 23.0041 31.8148 22.6214Z" fill="#F35218"/>
<path d="M17.9812 30.4545C18.6555 30.0719 18.8954 29.2135 18.5128 28.5371C18.128 27.8607 17.2696 27.6228 16.5912 28.0055C15.9148 28.3902 15.679 29.2486 16.0596 29.925C16.4423 30.6035 17.3027 30.8413 17.9812 30.4545Z" fill="#F35218"/>
<path d="M36.4047 20.0027C37.0811 19.618 37.321 18.7596 36.9363 18.0832C36.5536 17.4069 35.6931 17.169 35.0147 17.5516C34.3404 17.9343 34.1005 18.7948 34.4852 19.4711C34.8678 20.1455 35.7262 20.3854 36.4047 20.0027Z" fill="#F35218"/>
<path d="M27.9572 18.7182C27.951 19.496 27.3139 20.1206 26.5383 20.1165C25.7585 20.1103 25.1359 19.4753 25.1379 18.6975C25.1462 17.9198 25.7833 17.2931 26.5569 17.2993C27.3367 17.3034 27.9634 17.9364 27.9572 18.7182Z" fill="#F35218"/>
<path d="M27.8745 29.3169C27.8703 30.0946 27.2353 30.7214 26.4576 30.7152C25.6799 30.711 25.0552 30.076 25.0593 29.2962C25.0656 28.5164 25.7006 27.8918 26.4783 27.9C27.254 27.9042 27.8807 28.5392 27.8745 29.3169Z" fill="#F35218"/>
<path d="M27.9965 13.421C27.9903 14.1967 27.3553 14.8234 26.5776 14.8172C25.8019 14.811 25.1731 14.176 25.1814 13.4003C25.1855 12.6205 25.8185 11.9959 26.5983 12C27.376 12.0062 28.0007 12.6412 27.9965 13.421Z" fill="#F35218"/>
<path d="M27.8228 34.5997C27.8145 35.3774 27.1795 36.0042 26.4018 36C25.6261 35.9938 24.9994 35.3588 25.0056 34.579C25.0118 33.8033 25.6468 33.1745 26.4224 33.1828C27.2022 33.189 27.8269 33.824 27.8228 34.5997Z" fill="#F35218"/>
<path d="M37.0935 25.3889C37.8691 25.3869 38.5021 24.756 38.5 23.9803C38.5 23.2026 37.8691 22.5717 37.0914 22.5717C36.3137 22.5717 35.6828 23.2026 35.6828 23.9803C35.6849 24.7581 36.3178 25.3889 37.0935 25.3889Z" fill="#F35218"/>
<path d="M22.5958 14.056C22.9723 14.7366 22.7261 15.595 22.0456 15.9693C21.3651 16.3479 20.5067 16.1017 20.1303 15.4233C19.7538 14.7448 19.9979 13.8864 20.6784 13.51C21.3589 13.1315 22.2152 13.3755 22.5958 14.056Z" fill="#F35218"/>
<path d="M32.8635 32.5851C33.24 33.2656 32.9938 34.1219 32.3154 34.4984C31.6349 34.8769 30.7785 34.6307 30.4 33.9502C30.0236 33.2697 30.2656 32.4134 30.9481 32.0349C31.6266 31.6584 32.485 31.9025 32.8614 32.583L32.8635 32.5851Z" fill="#F35218"/>
<path d="M33.1138 15.597C32.7167 16.2692 31.8541 16.4884 31.186 16.0954C30.5159 15.6983 30.2945 14.8358 30.6917 14.1656C31.0867 13.4954 31.9513 13.2741 32.6215 13.6692C33.2896 14.0663 33.513 14.9289 33.1159 15.597H33.1138Z" fill="#F35218"/>
<path d="M22.3207 33.8261C21.9257 34.4963 21.059 34.7176 20.3909 34.3204C19.7207 33.9254 19.5015 33.0628 19.8965 32.3927C20.2916 31.7246 21.1562 31.5032 21.8243 31.8983C22.4924 32.2934 22.7158 33.1559 22.3187 33.824L22.3207 33.8261Z" fill="#F35218"/>
<path d="M15.9107 25.4282C16.6884 25.4282 17.3172 24.7953 17.3172 24.0175C17.3172 23.2377 16.6843 22.6089 15.9086 22.611C15.1309 22.611 14.5 23.2419 14.5 24.0217C14.5 24.8015 15.1329 25.4282 15.9107 25.4282Z" fill="#F35218"/>
<path d="M44.5915 20.1101H52.102V22.0855H49.5806V28.1067H47.1088V22.0855H44.5894V20.1101H44.5915Z" fill="#333333"/>
<path d="M53.3182 20.1101H55.7941V28.1067H53.3182V20.1101Z" fill="#333333"/>
<path d="M57.1386 25.4612L59.4884 25.3143C59.538 25.697 59.6435 25.9865 59.7986 26.1872C60.0531 26.5119 60.4171 26.6733 60.8908 26.6733C61.2445 26.6733 61.5154 26.5905 61.7057 26.4251C61.8981 26.2596 61.9932 26.0693 61.9932 25.85C61.9932 25.6432 61.9022 25.457 61.7202 25.2936C61.5382 25.1302 61.1183 24.9751 60.4564 24.8303C59.3725 24.5862 58.5989 24.2615 58.1377 23.8602C57.6723 23.4569 57.4406 22.9418 57.4406 22.3151C57.4406 21.9035 57.5585 21.5167 57.7964 21.1506C58.0343 20.7844 58.3921 20.4969 58.872 20.2901C59.3498 20.0812 60.0055 19.9757 60.837 19.9757C61.8588 19.9757 62.6386 20.166 63.1743 20.5445C63.7121 20.9251 64.0306 21.5291 64.132 22.3585L61.8029 22.495C61.7388 22.1351 61.6106 21.8745 61.412 21.709C61.2134 21.5456 60.9404 21.465 60.5908 21.465C60.3033 21.465 60.0861 21.5249 59.9414 21.647C59.7945 21.769 59.7221 21.9179 59.7221 22.0917C59.7221 22.2199 59.7821 22.3337 59.9021 22.435C60.0179 22.5405 60.2951 22.6398 60.7315 22.7308C61.8112 22.9625 62.5848 23.1983 63.0523 23.4382C63.5197 23.6761 63.859 23.9698 64.072 24.3235C64.2851 24.6772 64.3906 25.0702 64.3906 25.5087C64.3906 26.0217 64.2499 26.4933 63.9665 26.9277C63.6831 27.36 63.286 27.6889 62.7772 27.9123C62.2683 28.1356 61.6271 28.2473 60.8515 28.2473C59.4925 28.2473 58.5493 27.9846 58.026 27.4613C57.5027 26.938 57.2069 26.272 57.1366 25.4653L57.1386 25.4612Z" fill="#333333"/>
<path d="M70.5524 26.787H67.7455L67.3567 28.1067H64.8332L67.8386 20.1101H70.5338L73.5392 28.1067H70.9516L70.5503 26.787H70.5524ZM70.0394 25.0578L69.1562 22.1848L68.2833 25.0578H70.0394Z" fill="#333333"/>
<path d="M74.3418 20.1101H76.6501L79.6618 24.5345V20.1101H81.9929V28.1067H79.6618L76.6667 23.7154V28.1067H74.3438V20.1101H74.3418Z" fill="#333333"/>
<path d="M83.627 20.1101H90.2501V21.8186H86.1029V23.0887H89.9501V24.7206H86.1029V26.2968H90.37V28.1067H83.629V20.1101H83.627Z" fill="#333333"/>
<path d="M95.4274 20.1101H97.8971V26.1396H101.753V28.1087H95.4253V20.1122L95.4274 20.1101Z" fill="#333333"/>
<path d="M107.794 26.787H104.988L104.599 28.1067H102.075L105.081 20.1101H107.776L110.781 28.1067H108.194L107.794 26.787ZM107.282 25.0578L106.398 22.1848L105.525 25.0578H107.282Z" fill="#333333"/>
<path d="M111.573 20.1101H116.199C116.97 20.1101 117.562 20.3025 117.975 20.6831C118.387 21.0657 118.594 21.5373 118.594 22.0999C118.594 22.5736 118.447 22.979 118.151 23.3162C117.955 23.5416 117.667 23.7195 117.291 23.8519C117.866 23.9884 118.288 24.2263 118.559 24.5634C118.83 24.9006 118.966 25.3226 118.966 25.8314C118.966 26.2471 118.871 26.6195 118.676 26.9504C118.484 27.2814 118.219 27.5441 117.886 27.7364C117.677 27.8564 117.365 27.9433 116.947 27.9991C116.391 28.0715 116.021 28.1087 115.841 28.1087H111.576V20.1122L111.573 20.1101ZM114.066 23.2459H115.139C115.526 23.2459 115.793 23.1797 115.944 23.0473C116.095 22.9149 116.172 22.7225 116.172 22.4723C116.172 22.2406 116.095 22.0586 115.944 21.9283C115.793 21.798 115.53 21.7318 115.156 21.7318H114.064V23.2479L114.066 23.2459ZM114.066 26.3878H115.328C115.752 26.3878 116.052 26.3113 116.227 26.1603C116.401 26.0093 116.49 25.8066 116.49 25.5522C116.49 25.3164 116.403 25.1261 116.232 24.9813C116.06 24.8385 115.756 24.7662 115.324 24.7662H114.068V26.3857L114.066 26.3878Z" fill="#333333"/>
<path d="M119.827 25.4612L122.178 25.3143C122.228 25.697 122.331 25.9865 122.489 26.1872C122.741 26.5119 123.107 26.6733 123.579 26.6733C123.93 26.6733 124.203 26.5905 124.394 26.4251C124.586 26.2596 124.681 26.0693 124.681 25.85C124.681 25.6432 124.59 25.457 124.408 25.2936C124.226 25.1302 123.804 24.9751 123.142 24.8303C122.058 24.5862 121.285 24.2615 120.824 23.8602C120.358 23.4569 120.124 22.9418 120.124 22.3151C120.124 21.9035 120.244 21.5167 120.482 21.1506C120.72 20.7844 121.08 20.4969 121.556 20.2901C122.034 20.0812 122.691 19.9757 123.523 19.9757C124.545 19.9757 125.324 20.166 125.86 20.5445C126.396 20.9251 126.714 21.5291 126.818 22.3585L124.489 22.495C124.427 22.1351 124.296 21.8745 124.098 21.709C123.899 21.5456 123.626 21.465 123.277 21.465C122.989 21.465 122.772 21.5249 122.627 21.647C122.48 21.769 122.408 21.9179 122.408 22.0917C122.408 22.2199 122.468 22.3337 122.588 22.435C122.704 22.5405 122.981 22.6398 123.417 22.7308C124.497 22.9625 125.271 23.1983 125.738 23.4382C126.206 23.6761 126.545 23.9698 126.76 24.3235C126.971 24.6772 127.078 25.0702 127.078 25.5087C127.078 26.0217 126.936 26.4933 126.652 26.9277C126.369 27.36 125.972 27.6889 125.463 27.9123C124.954 28.1356 124.313 28.2473 123.537 28.2473C122.178 28.2473 121.235 27.9846 120.712 27.4613C120.189 26.938 119.891 26.272 119.822 25.4653L119.827 25.4612Z" fill="#333333"/>
</g>
</g>
<defs>
<filter id="filter0_b_54_267" x="-60" y="-60" width="263" height="168" filterUnits="userSpaceOnUse" color-interpolation-filters="sRGB">
<feFlood flood-opacity="0" result="BackgroundImageFix"/>
<feGaussianBlur in="BackgroundImageFix" stdDeviation="30"/>
<feComposite in2="SourceAlpha" operator="in" result="effect1_backgroundBlur_54_267"/>
<feBlend mode="normal" in="SourceGraphic" in2="effect1_backgroundBlur_54_267" result="shape"/>
</filter>
<clipPath id="clip0_54_267">
<rect width="112.583" height="24" fill="white" transform="translate(14.5 12)"/>
</clipPath>
</defs>
</svg>
