<svg width="225" height="225" viewBox="0 0 225 225" fill="none" xmlns="http://www.w3.org/2000/svg">
<ellipse cx="122.456" cy="96.5708" rx="4.97788" ry="4.97787" fill="#333333"/>
<circle cx="103.54" cy="96.5708" r="4.97787" fill="#333333"/>
<ellipse cx="95.5752" cy="81.6372" rx="4.97788" ry="4.97787" fill="#333333"/>
<circle cx="112.5" cy="76.6593" r="4.97787" fill="#333333"/>
<circle cx="131.416" cy="81.6372" r="4.97787" fill="#333333"/>
<circle cx="144.358" cy="68.6947" r="4.97787" fill="#333333"/>
<ellipse cx="164.27" cy="60.7301" rx="4.97788" ry="4.97787" fill="#333333"/>
<ellipse cx="176.217" cy="48.7832" rx="4.97787" ry="4.97788" fill="#333333"/>
<circle cx="196.128" cy="42.8098" r="4.97787" fill="#333333"/>
<ellipse cx="182.19" cy="29.8673" rx="4.97788" ry="4.97788" fill="#333333"/>
<ellipse cx="163.274" cy="37.8319" rx="4.97787" ry="4.97788" fill="#333333"/>
<ellipse cx="167.257" cy="18.916" rx="4.97787" ry="4.97788" fill="#333333"/>
<ellipse cx="148.341" cy="49.7788" rx="4.97787" ry="4.97788" fill="#333333"/>
<circle cx="130.42" cy="60.7301" r="4.97787" fill="#333333"/>
<circle cx="131.416" cy="42.8098" r="4.97787" fill="#333333"/>
<ellipse cx="131.416" cy="23.8938" rx="4.97787" ry="4.97788" fill="#333333"/>
<ellipse cx="147.345" cy="28.8717" rx="4.97787" ry="4.97788" fill="#333333"/>
<ellipse cx="150.332" cy="10.9513" rx="4.97788" ry="4.97788" fill="#333333"/>
<ellipse cx="132.411" cy="5.97348" rx="4.97787" ry="4.97788" fill="#333333"/>
<ellipse cx="112.5" cy="4.97788" rx="4.97787" ry="4.97788" fill="#333333"/>
<ellipse cx="94.5797" cy="5.97348" rx="4.97787" ry="4.97788" fill="#333333"/>
<ellipse cx="76.6593" cy="10.9513" rx="4.97787" ry="4.97788" fill="#333333"/>
<ellipse cx="59.7345" cy="18.916" rx="4.97787" ry="4.97788" fill="#333333"/>
<circle cx="44.8009" cy="29.8673" r="4.97788" fill="#333333"/>
<ellipse cx="30.8629" cy="42.8098" rx="4.97788" ry="4.97787" fill="#333333"/>
<ellipse cx="19.9115" cy="58.739" rx="4.97788" ry="4.97787" fill="#333333"/>
<ellipse cx="11.9469" cy="75.6637" rx="4.97788" ry="4.97787" fill="#333333"/>
<ellipse cx="29.8673" cy="77.6549" rx="4.97788" ry="4.97788" fill="#333333"/>
<ellipse cx="38.8275" cy="62.7213" rx="4.97788" ry="4.97787" fill="#333333"/>
<circle cx="49.7788" cy="48.7832" r="4.97788" fill="#333333"/>
<ellipse cx="63.7169" cy="37.8319" rx="4.97787" ry="4.97788" fill="#333333"/>
<ellipse cx="79.646" cy="28.8717" rx="4.97788" ry="4.97788" fill="#333333"/>
<ellipse cx="95.5752" cy="23.8938" rx="4.97788" ry="4.97788" fill="#333333"/>
<ellipse cx="112.5" cy="22.8983" rx="4.97787" ry="4.97788" fill="#333333"/>
<circle cx="112.5" cy="40.8186" r="4.97787" fill="#333333"/>
<circle cx="112.5" cy="58.739" r="4.97787" fill="#333333"/>
<circle cx="96.5708" cy="60.7301" r="4.97787" fill="#333333"/>
<circle cx="81.6372" cy="68.6947" r="4.97787" fill="#333333"/>
<circle cx="69.6903" cy="80.6416" r="4.97787" fill="#333333"/>
<circle cx="50.7744" cy="76.6593" r="4.97787" fill="#333333"/>
<circle cx="61.7257" cy="61.7257" r="4.97787" fill="#333333"/>
<ellipse cx="76.6593" cy="49.7788" rx="4.97787" ry="4.97788" fill="#333333"/>
<circle cx="94.5797" cy="42.8098" r="4.97787" fill="#333333"/>
<ellipse cx="103.54" cy="128.429" rx="4.97787" ry="4.97788" fill="#333333"/>
<ellipse cx="95.5752" cy="143.363" rx="4.97788" ry="4.97788" fill="#333333"/>
<circle cx="81.6372" cy="156.305" r="4.97787" fill="#333333"/>
<circle cx="62.7213" cy="163.274" r="4.97787" fill="#333333"/>
<ellipse cx="49.7788" cy="176.217" rx="4.97788" ry="4.97787" fill="#333333"/>
<circle cx="43.8053" cy="195.133" r="4.97787" fill="#333333"/>
<ellipse cx="30.8629" cy="181.195" rx="4.97788" ry="4.97787" fill="#333333"/>
<ellipse cx="38.8275" cy="162.279" rx="4.97788" ry="4.97787" fill="#333333"/>
<circle cx="50.7744" cy="148.341" r="4.97787" fill="#333333"/>
<ellipse cx="69.6903" cy="143.363" rx="4.97787" ry="4.97788" fill="#333333"/>
<circle cx="82.6327" cy="130.42" r="4.97787" fill="#333333"/>
<ellipse cx="61.7257" cy="128.429" rx="4.97787" ry="4.97788" fill="#333333"/>
<ellipse cx="43.8053" cy="131.416" rx="4.97787" ry="4.97787" fill="#333333"/>
<ellipse cx="24.8894" cy="129.425" rx="4.97788" ry="4.97787" fill="#333333"/>
<ellipse cx="6.96896" cy="130.42" rx="4.97788" ry="4.97787" fill="#333333"/>
<ellipse cx="11.9469" cy="149.336" rx="4.97788" ry="4.97787" fill="#333333"/>
<ellipse cx="29.8673" cy="146.35" rx="4.97788" ry="4.97787" fill="#333333"/>
<ellipse cx="19.9115" cy="166.261" rx="4.97788" ry="4.97788" fill="#333333"/>
<circle cx="122.456" cy="128.429" r="4.97788" fill="#333333"/>
<ellipse cx="130.42" cy="112.5" rx="4.97787" ry="4.97788" fill="#333333"/>
<ellipse cx="144.358" cy="94.5797" rx="4.97787" ry="4.97788" fill="#333333"/>
<ellipse cx="157.301" cy="80.6416" rx="4.97788" ry="4.97787" fill="#333333"/>
<ellipse cx="175.221" cy="76.6593" rx="4.97788" ry="4.97787" fill="#333333"/>
<circle cx="188.164" cy="62.7213" r="4.97787" fill="#333333"/>
<ellipse cx="196.128" cy="78.6505" rx="4.97787" ry="4.97788" fill="#333333"/>
<ellipse cx="182.19" cy="93.5841" rx="4.97788" ry="4.97788" fill="#333333"/>
<ellipse cx="201.106" cy="94.5797" rx="4.97787" ry="4.97788" fill="#333333"/>
<ellipse cx="219.027" cy="93.5841" rx="4.97787" ry="4.97788" fill="#333333"/>
<circle cx="214.049" cy="75.6637" r="4.97787" fill="#333333"/>
<ellipse cx="164.27" cy="95.5753" rx="4.97788" ry="4.97787" fill="#333333"/>
<circle cx="206.084" cy="58.739" r="4.97787" fill="#333333"/>
<ellipse cx="148.341" cy="112.5" rx="4.97787" ry="4.97788" fill="#333333"/>
<circle cx="144.358" cy="130.42" r="4.97787" fill="#333333"/>
<ellipse cx="131.416" cy="143.363" rx="4.97787" ry="4.97788" fill="#333333"/>
<circle cx="112.5" cy="148.341" r="4.97787" fill="#333333"/>
<ellipse cx="112.5" cy="166.261" rx="4.97787" ry="4.97788" fill="#333333"/>
<circle cx="96.5708" cy="163.274" r="4.97787" fill="#333333"/>
<ellipse cx="95.5752" cy="182.19" rx="4.97788" ry="4.97788" fill="#333333"/>
<ellipse cx="95.5752" cy="200.111" rx="4.97788" ry="4.97788" fill="#333333"/>
<ellipse cx="94.5797" cy="218.031" rx="4.97787" ry="4.97788" fill="#333333"/>
<ellipse cx="112.5" cy="220.022" rx="4.97787" ry="4.97788" fill="#333333"/>
<circle cx="112.5" cy="203.097" r="4.97787" fill="#333333"/>
<ellipse cx="112.5" cy="184.181" rx="4.97787" ry="4.97788" fill="#333333"/>
<circle cx="129.425" cy="163.274" r="4.97787" fill="#333333"/>
<circle cx="132.411" cy="181.195" r="4.97787" fill="#333333"/>
<ellipse cx="130.42" cy="200.111" rx="4.97787" ry="4.97788" fill="#333333"/>
<ellipse cx="131.416" cy="218.031" rx="4.97787" ry="4.97788" fill="#333333"/>
<circle cx="149.336" cy="213.053" r="4.97787" fill="#333333"/>
<circle cx="147.345" cy="195.133" r="4.97787" fill="#333333"/>
<circle cx="149.336" cy="174.226" r="4.97787" fill="#333333"/>
<circle cx="144.358" cy="156.305" r="4.97787" fill="#333333"/>
<circle cx="156.305" cy="144.358" r="4.97787" fill="#333333"/>
<ellipse cx="164.27" cy="129.425" rx="4.97788" ry="4.97787" fill="#333333"/>
<circle cx="183.186" cy="130.42" r="4.97787" fill="#333333"/>
<circle cx="201.106" cy="129.425" r="4.97787" fill="#333333"/>
<ellipse cx="220.022" cy="130.42" rx="4.97788" ry="4.97787" fill="#333333"/>
<circle cx="214.049" cy="149.336" r="4.97787" fill="#333333"/>
<ellipse cx="206.084" cy="166.261" rx="4.97787" ry="4.97788" fill="#333333"/>
<circle cx="196.128" cy="181.195" r="4.97787" fill="#333333"/>
<ellipse cx="182.19" cy="195.133" rx="4.97788" ry="4.97787" fill="#333333"/>
<circle cx="167.257" cy="205.088" r="4.97787" fill="#333333"/>
<circle cx="163.274" cy="187.168" r="4.97787" fill="#333333"/>
<ellipse cx="177.212" cy="176.217" rx="4.97788" ry="4.97787" fill="#333333"/>
<ellipse cx="188.164" cy="161.283" rx="4.97787" ry="4.97788" fill="#333333"/>
<circle cx="196.128" cy="146.35" r="4.97787" fill="#333333"/>
<ellipse cx="175.221" cy="148.341" rx="4.97788" ry="4.97787" fill="#333333"/>
<ellipse cx="164.27" cy="163.274" rx="4.97788" ry="4.97787" fill="#333333"/>
<ellipse cx="77.6549" cy="175.221" rx="4.97788" ry="4.97788" fill="#333333"/>
<circle cx="63.7169" cy="187.168" r="4.97787" fill="#333333"/>
<ellipse cx="79.646" cy="195.133" rx="4.97788" ry="4.97787" fill="#333333"/>
<circle cx="76.6593" cy="213.053" r="4.97787" fill="#333333"/>
<circle cx="59.7345" cy="205.088" r="4.97787" fill="#333333"/>
<ellipse cx="166.261" cy="112.5" rx="4.97788" ry="4.97788" fill="#333333"/>
<ellipse cx="184.181" cy="112.5" rx="4.97788" ry="4.97788" fill="#333333"/>
<ellipse cx="202.102" cy="112.5" rx="4.97788" ry="4.97788" fill="#333333"/>
<ellipse cx="220.022" cy="112.5" rx="4.97788" ry="4.97788" fill="#333333"/>
<ellipse cx="94.5797" cy="112.5" rx="4.97787" ry="4.97788" fill="#333333"/>
<ellipse cx="76.6593" cy="112.5" rx="4.97787" ry="4.97788" fill="#333333"/>
<ellipse cx="81.6372" cy="94.5797" rx="4.97787" ry="4.97788" fill="#333333"/>
<circle cx="61.7257" cy="95.5753" r="4.97787" fill="#333333"/>
<ellipse cx="43.8053" cy="94.5797" rx="4.97787" ry="4.97788" fill="#333333"/>
<ellipse cx="24.8894" cy="94.5797" rx="4.97788" ry="4.97788" fill="#333333"/>
<ellipse cx="6.96896" cy="93.5841" rx="4.97788" ry="4.97788" fill="#333333"/>
<ellipse cx="58.7389" cy="112.5" rx="4.97788" ry="4.97788" fill="#333333"/>
<ellipse cx="40.8186" cy="112.5" rx="4.97788" ry="4.97788" fill="#333333"/>
<ellipse cx="22.8983" cy="112.5" rx="4.97788" ry="4.97788" fill="#333333"/>
<ellipse cx="4.97788" cy="112.5" rx="4.97788" ry="4.97788" fill="#333333"/>
<ellipse cx="112.5" cy="112.5" rx="4.97787" ry="4.97788" fill="#333333"/>
</svg>
