<svg width="152" height="165" viewBox="0 0 152 165" fill="none" xmlns="http://www.w3.org/2000/svg">
<mask id="mask0_1_2077" style="mask-type:alpha" maskUnits="userSpaceOnUse" x="0" y="0" width="152" height="165">
<path d="M76 0C33.3846 0 0 19.5144 0 44.4231V120.577C0 145.486 33.3846 165 76 165C118.615 165 152 145.486 152 120.577V44.4231C152 19.5144 118.615 0 76 0ZM139.333 82.5C139.333 90.1312 133.095 97.9132 122.225 103.855C109.986 110.542 93.5671 114.231 76 114.231C58.4329 114.231 42.0138 110.542 29.7746 103.855C18.905 97.9132 12.6667 90.1312 12.6667 82.5V69.3C26.1725 81.199 49.2654 88.8462 76 88.8462C102.735 88.8462 125.828 81.1673 139.333 69.3V82.5ZM122.225 141.932C109.986 148.619 93.5671 152.308 76 152.308C58.4329 152.308 42.0138 148.619 29.7746 141.932C18.905 135.99 12.6667 128.208 12.6667 120.577V107.377C26.1725 119.276 49.2654 126.923 76 126.923C102.735 126.923 125.828 119.244 139.333 107.377V120.577C139.333 128.208 133.095 135.99 122.225 141.932Z" fill="#343330"/>
</mask>
<g mask="url(#mask0_1_2077)">
<circle cx="-0.365052" cy="4.48407" r="2.24603" fill="black"/>
<circle cx="8.61908" cy="4.48407" r="2.24603" fill="black"/>
<circle cx="17.6032" cy="4.48407" r="2.24603" fill="black"/>
<circle cx="26.5873" cy="4.48407" r="2.24603" fill="black"/>
<circle cx="35.5715" cy="4.48407" r="2.24603" fill="black"/>
<circle cx="44.5556" cy="4.48407" r="2.24603" fill="black"/>
<circle cx="53.5397" cy="4.48407" r="2.24603" fill="black"/>
<circle cx="62.5239" cy="4.48407" r="2.24603" fill="black"/>
<circle cx="71.508" cy="4.48407" r="2.24603" fill="black"/>
<circle cx="80.4921" cy="4.48407" r="2.24603" fill="black"/>
<circle cx="89.4763" cy="4.48407" r="2.24603" fill="black"/>
<circle cx="98.4604" cy="4.48407" r="2.24603" fill="black"/>
<circle cx="107.445" cy="4.48407" r="2.24603" fill="black"/>
<circle cx="116.429" cy="4.48407" r="2.24603" fill="black"/>
<circle cx="125.413" cy="4.48407" r="2.24603" fill="black"/>
<circle cx="134.397" cy="4.48407" r="2.24603" fill="black"/>
<circle cx="143.381" cy="4.48407" r="2.24603" fill="black"/>
<circle cx="152.365" cy="4.48407" r="2.24603" fill="black"/>
<circle cx="-0.365052" cy="13.3095" r="2.24603" fill="black"/>
<circle cx="8.61908" cy="13.3095" r="2.24603" fill="black"/>
<circle cx="17.6032" cy="13.3095" r="2.24603" fill="black"/>
<circle cx="26.5873" cy="13.3095" r="2.24603" fill="black"/>
<circle cx="35.5715" cy="13.3095" r="2.24603" fill="black"/>
<circle cx="44.5556" cy="13.3095" r="2.24603" fill="black"/>
<circle cx="53.5397" cy="13.3095" r="2.24603" fill="black"/>
<circle cx="62.5239" cy="13.3095" r="2.24603" fill="black"/>
<circle cx="71.508" cy="13.3095" r="2.24603" fill="black"/>
<circle cx="80.4921" cy="13.3095" r="2.24603" fill="black"/>
<circle cx="89.4763" cy="13.3095" r="2.24603" fill="black"/>
<circle cx="98.4604" cy="13.3095" r="2.24603" fill="black"/>
<circle cx="107.445" cy="13.3095" r="2.24603" fill="black"/>
<circle cx="116.429" cy="13.3095" r="2.24603" fill="black"/>
<circle cx="125.413" cy="13.3095" r="2.24603" fill="black"/>
<circle cx="134.397" cy="13.3095" r="2.24603" fill="black"/>
<circle cx="143.381" cy="13.3095" r="2.24603" fill="black"/>
<circle cx="152.365" cy="13.3095" r="2.24603" fill="black"/>
<circle cx="-0.365052" cy="22.1349" r="2.24603" fill="black"/>
<circle cx="8.61908" cy="22.1349" r="2.24603" fill="black"/>
<circle cx="17.6032" cy="22.1349" r="2.24603" fill="black"/>
<circle cx="26.5873" cy="22.1349" r="2.24603" fill="black"/>
<circle cx="35.5715" cy="22.1349" r="2.24603" fill="black"/>
<circle cx="44.5556" cy="22.1349" r="2.24603" fill="black"/>
<circle cx="53.5397" cy="22.1349" r="2.24603" fill="black"/>
<circle cx="62.5239" cy="22.1349" r="2.24603" fill="black"/>
<circle cx="71.508" cy="22.1349" r="2.24603" fill="black"/>
<circle cx="80.4921" cy="22.1349" r="2.24603" fill="black"/>
<circle cx="89.4763" cy="22.1349" r="2.24603" fill="black"/>
<circle cx="98.4604" cy="22.1349" r="2.24603" fill="black"/>
<circle cx="107.445" cy="22.1349" r="2.24603" fill="black"/>
<circle cx="116.429" cy="22.1349" r="2.24603" fill="black"/>
<circle cx="125.413" cy="22.1349" r="2.24603" fill="black"/>
<circle cx="134.397" cy="22.1349" r="2.24603" fill="black"/>
<circle cx="143.381" cy="22.1349" r="2.24603" fill="black"/>
<circle cx="152.365" cy="22.1349" r="2.24603" fill="black"/>
<circle cx="-0.365052" cy="30.9603" r="2.24603" fill="black"/>
<circle cx="8.61908" cy="30.9603" r="2.24603" fill="black"/>
<circle cx="17.6032" cy="30.9603" r="2.24603" fill="black"/>
<circle cx="26.5873" cy="30.9603" r="2.24603" fill="black"/>
<circle cx="35.5715" cy="30.9603" r="2.24603" fill="black"/>
<circle cx="44.5556" cy="30.9603" r="2.24603" fill="black"/>
<circle cx="53.5397" cy="30.9603" r="2.24603" fill="black"/>
<circle cx="62.5239" cy="30.9603" r="2.24603" fill="black"/>
<circle cx="71.508" cy="30.9603" r="2.24603" fill="black"/>
<circle cx="80.4921" cy="30.9603" r="2.24603" fill="black"/>
<circle cx="89.4763" cy="30.9603" r="2.24603" fill="black"/>
<circle cx="98.4604" cy="30.9603" r="2.24603" fill="black"/>
<circle cx="107.445" cy="30.9603" r="2.24603" fill="black"/>
<circle cx="116.429" cy="30.9603" r="2.24603" fill="black"/>
<circle cx="125.413" cy="30.9603" r="2.24603" fill="black"/>
<circle cx="134.397" cy="30.9603" r="2.24603" fill="black"/>
<circle cx="143.381" cy="30.9603" r="2.24603" fill="black"/>
<circle cx="152.365" cy="30.9603" r="2.24603" fill="black"/>
<circle cx="-0.365052" cy="39.7857" r="2.24603" fill="black"/>
<circle cx="8.61908" cy="39.7857" r="2.24603" fill="black"/>
<circle cx="17.6032" cy="39.7857" r="2.24603" fill="black"/>
<circle cx="26.5873" cy="39.7857" r="2.24603" fill="black"/>
<circle cx="35.5715" cy="39.7857" r="2.24603" fill="black"/>
<circle cx="44.5556" cy="39.7857" r="2.24603" fill="black"/>
<circle cx="53.5397" cy="39.7857" r="2.24603" fill="black"/>
<circle cx="62.5239" cy="39.7857" r="2.24603" fill="black"/>
<circle cx="71.508" cy="39.7857" r="2.24603" fill="black"/>
<circle cx="80.4921" cy="39.7857" r="2.24603" fill="black"/>
<circle cx="89.4763" cy="39.7857" r="2.24603" fill="black"/>
<circle cx="98.4604" cy="39.7857" r="2.24603" fill="black"/>
<circle cx="107.445" cy="39.7857" r="2.24603" fill="black"/>
<circle cx="116.429" cy="39.7857" r="2.24603" fill="black"/>
<circle cx="125.413" cy="39.7857" r="2.24603" fill="black"/>
<circle cx="134.397" cy="39.7857" r="2.24603" fill="black"/>
<circle cx="143.381" cy="39.7857" r="2.24603" fill="black"/>
<circle cx="152.365" cy="39.7857" r="2.24603" fill="black"/>
<circle cx="-0.365052" cy="48.6111" r="2.24603" fill="black"/>
<circle cx="8.61908" cy="48.6111" r="2.24603" fill="black"/>
<circle cx="17.6032" cy="48.6111" r="2.24603" fill="black"/>
<circle cx="26.5873" cy="48.6111" r="2.24603" fill="black"/>
<circle cx="35.5715" cy="48.6111" r="2.24603" fill="black"/>
<circle cx="44.5556" cy="48.6111" r="2.24603" fill="black"/>
<circle cx="53.5397" cy="48.6111" r="2.24603" fill="black"/>
<circle cx="62.5239" cy="48.6111" r="2.24603" fill="black"/>
<circle cx="71.508" cy="48.6111" r="2.24603" fill="black"/>
<circle cx="80.4921" cy="48.6111" r="2.24603" fill="black"/>
<circle cx="89.4763" cy="48.6111" r="2.24603" fill="black"/>
<circle cx="98.4604" cy="48.6111" r="2.24603" fill="black"/>
<circle cx="107.445" cy="48.6111" r="2.24603" fill="black"/>
<circle cx="116.429" cy="48.6111" r="2.24603" fill="black"/>
<circle cx="125.413" cy="48.6111" r="2.24603" fill="black"/>
<circle cx="134.397" cy="48.6111" r="2.24603" fill="black"/>
<circle cx="143.381" cy="48.6111" r="2.24603" fill="black"/>
<circle cx="152.365" cy="48.6111" r="2.24603" fill="black"/>
<circle cx="-0.365052" cy="57.4365" r="2.24603" fill="black"/>
<circle cx="8.61908" cy="57.4365" r="2.24603" fill="black"/>
<circle cx="17.6032" cy="57.4365" r="2.24603" fill="black"/>
<circle cx="26.5873" cy="57.4365" r="2.24603" fill="black"/>
<circle cx="35.5715" cy="57.4365" r="2.24603" fill="black"/>
<circle cx="44.5556" cy="57.4365" r="2.24603" fill="black"/>
<circle cx="53.5397" cy="57.4365" r="2.24603" fill="black"/>
<circle cx="62.5239" cy="57.4365" r="2.24603" fill="black"/>
<circle cx="71.508" cy="57.4365" r="2.24603" fill="black"/>
<circle cx="80.4921" cy="57.4365" r="2.24603" fill="black"/>
<circle cx="89.4763" cy="57.4365" r="2.24603" fill="black"/>
<circle cx="98.4604" cy="57.4365" r="2.24603" fill="black"/>
<circle cx="107.445" cy="57.4365" r="2.24603" fill="black"/>
<circle cx="116.429" cy="57.4365" r="2.24603" fill="black"/>
<circle cx="125.413" cy="57.4365" r="2.24603" fill="black"/>
<circle cx="134.397" cy="57.4365" r="2.24603" fill="black"/>
<circle cx="143.381" cy="57.4365" r="2.24603" fill="black"/>
<circle cx="152.365" cy="57.4365" r="2.24603" fill="black"/>
<circle cx="-0.365052" cy="66.2619" r="2.24603" fill="black"/>
<circle cx="8.61908" cy="66.2619" r="2.24603" fill="black"/>
<circle cx="17.6032" cy="66.2619" r="2.24603" fill="black"/>
<circle cx="26.5873" cy="66.2619" r="2.24603" fill="black"/>
<circle cx="35.5715" cy="66.2619" r="2.24603" fill="black"/>
<circle cx="44.5556" cy="66.2619" r="2.24603" fill="black"/>
<circle cx="53.5397" cy="66.2619" r="2.24603" fill="black"/>
<circle cx="62.5239" cy="66.2619" r="2.24603" fill="black"/>
<circle cx="71.508" cy="66.2619" r="2.24603" fill="black"/>
<circle cx="80.4921" cy="66.2619" r="2.24603" fill="black"/>
<circle cx="89.4763" cy="66.2619" r="2.24603" fill="black"/>
<circle cx="98.4604" cy="66.2619" r="2.24603" fill="black"/>
<circle cx="107.445" cy="66.2619" r="2.24603" fill="black"/>
<circle cx="116.429" cy="66.2619" r="2.24603" fill="black"/>
<circle cx="125.413" cy="66.2619" r="2.24603" fill="black"/>
<circle cx="134.397" cy="66.2619" r="2.24603" fill="black"/>
<circle cx="143.381" cy="66.2619" r="2.24603" fill="black"/>
<circle cx="152.365" cy="66.2619" r="2.24603" fill="black"/>
<circle cx="-0.365052" cy="75.0873" r="2.24603" fill="black"/>
<circle cx="8.61908" cy="75.0873" r="2.24603" fill="black"/>
<circle cx="17.6032" cy="75.0873" r="2.24603" fill="black"/>
<circle cx="26.5873" cy="75.0873" r="2.24603" fill="black"/>
<circle cx="35.5715" cy="75.0873" r="2.24603" fill="black"/>
<circle cx="44.5556" cy="75.0873" r="2.24603" fill="black"/>
<circle cx="53.5397" cy="75.0873" r="2.24603" fill="black"/>
<circle cx="62.5239" cy="75.0873" r="2.24603" fill="black"/>
<circle cx="71.508" cy="75.0873" r="2.24603" fill="black"/>
<circle cx="80.4921" cy="75.0873" r="2.24603" fill="black"/>
<circle cx="89.4763" cy="75.0873" r="2.24603" fill="black"/>
<circle cx="98.4604" cy="75.0873" r="2.24603" fill="black"/>
<circle cx="107.445" cy="75.0873" r="2.24603" fill="black"/>
<circle cx="116.429" cy="75.0873" r="2.24603" fill="black"/>
<circle cx="125.413" cy="75.0873" r="2.24603" fill="black"/>
<circle cx="134.397" cy="75.0873" r="2.24603" fill="black"/>
<circle cx="143.381" cy="75.0873" r="2.24603" fill="black"/>
<circle cx="152.365" cy="75.0873" r="2.24603" fill="black"/>
<circle cx="-0.365052" cy="83.9127" r="2.24603" fill="black"/>
<circle cx="8.61908" cy="83.9127" r="2.24603" fill="black"/>
<circle cx="17.6032" cy="83.9127" r="2.24603" fill="black"/>
<circle cx="26.5873" cy="83.9127" r="2.24603" fill="black"/>
<circle cx="35.5715" cy="83.9127" r="2.24603" fill="black"/>
<circle cx="44.5556" cy="83.9127" r="2.24603" fill="black"/>
<circle cx="53.5397" cy="83.9127" r="2.24603" fill="black"/>
<circle cx="62.5239" cy="83.9127" r="2.24603" fill="black"/>
<circle cx="71.508" cy="83.9127" r="2.24603" fill="black"/>
<circle cx="80.4921" cy="83.9127" r="2.24603" fill="black"/>
<circle cx="89.4763" cy="83.9127" r="2.24603" fill="black"/>
<circle cx="98.4604" cy="83.9127" r="2.24603" fill="black"/>
<circle cx="107.445" cy="83.9127" r="2.24603" fill="black"/>
<circle cx="116.429" cy="83.9127" r="2.24603" fill="black"/>
<circle cx="125.413" cy="83.9127" r="2.24603" fill="black"/>
<circle cx="134.397" cy="83.9127" r="2.24603" fill="black"/>
<circle cx="143.381" cy="83.9127" r="2.24603" fill="black"/>
<circle cx="152.365" cy="83.9127" r="2.24603" fill="black"/>
<circle cx="-0.365052" cy="92.7381" r="2.24603" fill="black"/>
<circle cx="8.61908" cy="92.7381" r="2.24603" fill="black"/>
<circle cx="17.6032" cy="92.7381" r="2.24603" fill="black"/>
<circle cx="26.5873" cy="92.7381" r="2.24603" fill="black"/>
<circle cx="35.5715" cy="92.7381" r="2.24603" fill="black"/>
<circle cx="44.5556" cy="92.7381" r="2.24603" fill="black"/>
<circle cx="53.5397" cy="92.7381" r="2.24603" fill="black"/>
<circle cx="62.5239" cy="92.7381" r="2.24603" fill="black"/>
<circle cx="71.508" cy="92.7381" r="2.24603" fill="black"/>
<circle cx="80.4921" cy="92.7381" r="2.24603" fill="black"/>
<circle cx="89.4763" cy="92.7381" r="2.24603" fill="black"/>
<circle cx="98.4604" cy="92.7381" r="2.24603" fill="black"/>
<circle cx="107.445" cy="92.7381" r="2.24603" fill="black"/>
<circle cx="116.429" cy="92.7381" r="2.24603" fill="black"/>
<circle cx="125.413" cy="92.7381" r="2.24603" fill="black"/>
<circle cx="134.397" cy="92.7381" r="2.24603" fill="black"/>
<circle cx="143.381" cy="92.7381" r="2.24603" fill="black"/>
<circle cx="152.365" cy="92.7381" r="2.24603" fill="black"/>
<circle cx="-0.365052" cy="101.564" r="2.24603" fill="black"/>
<circle cx="8.61908" cy="101.564" r="2.24603" fill="black"/>
<circle cx="17.6032" cy="101.564" r="2.24603" fill="black"/>
<circle cx="26.5873" cy="101.564" r="2.24603" fill="black"/>
<circle cx="35.5715" cy="101.564" r="2.24603" fill="black"/>
<circle cx="44.5556" cy="101.564" r="2.24603" fill="black"/>
<circle cx="53.5397" cy="101.564" r="2.24603" fill="black"/>
<circle cx="62.5239" cy="101.564" r="2.24603" fill="black"/>
<circle cx="71.508" cy="101.564" r="2.24603" fill="black"/>
<circle cx="80.4921" cy="101.564" r="2.24603" fill="black"/>
<circle cx="89.4763" cy="101.564" r="2.24603" fill="black"/>
<circle cx="98.4604" cy="101.564" r="2.24603" fill="black"/>
<circle cx="107.445" cy="101.564" r="2.24603" fill="black"/>
<circle cx="116.429" cy="101.564" r="2.24603" fill="black"/>
<circle cx="125.413" cy="101.564" r="2.24603" fill="black"/>
<circle cx="134.397" cy="101.564" r="2.24603" fill="black"/>
<circle cx="143.381" cy="101.564" r="2.24603" fill="black"/>
<circle cx="152.365" cy="101.564" r="2.24603" fill="black"/>
<circle cx="-0.365052" cy="110.389" r="2.24603" fill="black"/>
<circle cx="8.61908" cy="110.389" r="2.24603" fill="black"/>
<circle cx="17.6032" cy="110.389" r="2.24603" fill="black"/>
<circle cx="26.5873" cy="110.389" r="2.24603" fill="black"/>
<circle cx="35.5715" cy="110.389" r="2.24603" fill="black"/>
<circle cx="44.5556" cy="110.389" r="2.24603" fill="black"/>
<circle cx="53.5397" cy="110.389" r="2.24603" fill="black"/>
<circle cx="62.5239" cy="110.389" r="2.24603" fill="black"/>
<circle cx="71.508" cy="110.389" r="2.24603" fill="black"/>
<circle cx="80.4921" cy="110.389" r="2.24603" fill="black"/>
<circle cx="89.4763" cy="110.389" r="2.24603" fill="black"/>
<circle cx="98.4604" cy="110.389" r="2.24603" fill="black"/>
<circle cx="107.445" cy="110.389" r="2.24603" fill="black"/>
<circle cx="116.429" cy="110.389" r="2.24603" fill="black"/>
<circle cx="125.413" cy="110.389" r="2.24603" fill="black"/>
<circle cx="134.397" cy="110.389" r="2.24603" fill="black"/>
<circle cx="143.381" cy="110.389" r="2.24603" fill="black"/>
<circle cx="152.365" cy="110.389" r="2.24603" fill="black"/>
<circle cx="-0.365052" cy="119.214" r="2.24603" fill="black"/>
<circle cx="8.61908" cy="119.214" r="2.24603" fill="black"/>
<circle cx="17.6032" cy="119.214" r="2.24603" fill="black"/>
<circle cx="26.5873" cy="119.214" r="2.24603" fill="black"/>
<circle cx="35.5715" cy="119.214" r="2.24603" fill="black"/>
<circle cx="44.5556" cy="119.214" r="2.24603" fill="black"/>
<circle cx="53.5397" cy="119.214" r="2.24603" fill="black"/>
<circle cx="62.5239" cy="119.214" r="2.24603" fill="black"/>
<circle cx="71.508" cy="119.214" r="2.24603" fill="black"/>
<circle cx="80.4921" cy="119.214" r="2.24603" fill="black"/>
<circle cx="89.4763" cy="119.214" r="2.24603" fill="black"/>
<circle cx="98.4604" cy="119.214" r="2.24603" fill="black"/>
<circle cx="107.445" cy="119.214" r="2.24603" fill="black"/>
<circle cx="116.429" cy="119.214" r="2.24603" fill="black"/>
<circle cx="125.413" cy="119.214" r="2.24603" fill="black"/>
<circle cx="134.397" cy="119.214" r="2.24603" fill="black"/>
<circle cx="143.381" cy="119.214" r="2.24603" fill="black"/>
<circle cx="152.365" cy="119.214" r="2.24603" fill="black"/>
<circle cx="-0.365052" cy="128.04" r="2.24603" fill="black"/>
<circle cx="8.61908" cy="128.04" r="2.24603" fill="black"/>
<circle cx="17.6032" cy="128.04" r="2.24603" fill="black"/>
<circle cx="26.5873" cy="128.04" r="2.24603" fill="black"/>
<circle cx="35.5715" cy="128.04" r="2.24603" fill="black"/>
<circle cx="44.5556" cy="128.04" r="2.24603" fill="black"/>
<circle cx="53.5397" cy="128.04" r="2.24603" fill="black"/>
<circle cx="62.5239" cy="128.04" r="2.24603" fill="black"/>
<circle cx="71.508" cy="128.04" r="2.24603" fill="black"/>
<circle cx="80.4921" cy="128.04" r="2.24603" fill="black"/>
<circle cx="89.4763" cy="128.04" r="2.24603" fill="black"/>
<circle cx="98.4604" cy="128.04" r="2.24603" fill="black"/>
<circle cx="107.445" cy="128.04" r="2.24603" fill="black"/>
<circle cx="116.429" cy="128.04" r="2.24603" fill="black"/>
<circle cx="125.413" cy="128.04" r="2.24603" fill="black"/>
<circle cx="134.397" cy="128.04" r="2.24603" fill="black"/>
<circle cx="143.381" cy="128.04" r="2.24603" fill="black"/>
<circle cx="152.365" cy="128.04" r="2.24603" fill="black"/>
<circle cx="-0.365052" cy="136.865" r="2.24603" fill="black"/>
<circle cx="8.61908" cy="136.865" r="2.24603" fill="black"/>
<circle cx="17.6032" cy="136.865" r="2.24603" fill="black"/>
<circle cx="26.5873" cy="136.865" r="2.24603" fill="black"/>
<circle cx="35.5715" cy="136.865" r="2.24603" fill="black"/>
<circle cx="44.5556" cy="136.865" r="2.24603" fill="black"/>
<circle cx="53.5397" cy="136.865" r="2.24603" fill="black"/>
<circle cx="62.5239" cy="136.865" r="2.24603" fill="black"/>
<circle cx="71.508" cy="136.865" r="2.24603" fill="black"/>
<circle cx="80.4921" cy="136.865" r="2.24603" fill="black"/>
<circle cx="89.4763" cy="136.865" r="2.24603" fill="black"/>
<circle cx="98.4604" cy="136.865" r="2.24603" fill="black"/>
<circle cx="107.445" cy="136.865" r="2.24603" fill="black"/>
<circle cx="116.429" cy="136.865" r="2.24603" fill="black"/>
<circle cx="125.413" cy="136.865" r="2.24603" fill="black"/>
<circle cx="134.397" cy="136.865" r="2.24603" fill="black"/>
<circle cx="143.381" cy="136.865" r="2.24603" fill="black"/>
<circle cx="152.365" cy="136.865" r="2.24603" fill="black"/>
<circle cx="-0.365052" cy="145.69" r="2.24603" fill="black"/>
<circle cx="8.61908" cy="145.69" r="2.24603" fill="black"/>
<circle cx="17.6032" cy="145.69" r="2.24603" fill="black"/>
<circle cx="26.5873" cy="145.69" r="2.24603" fill="black"/>
<circle cx="35.5715" cy="145.69" r="2.24603" fill="black"/>
<circle cx="44.5556" cy="145.69" r="2.24603" fill="black"/>
<circle cx="53.5397" cy="145.69" r="2.24603" fill="black"/>
<circle cx="62.5239" cy="145.69" r="2.24603" fill="black"/>
<circle cx="71.508" cy="145.69" r="2.24603" fill="black"/>
<circle cx="80.4921" cy="145.69" r="2.24603" fill="black"/>
<circle cx="89.4763" cy="145.69" r="2.24603" fill="black"/>
<circle cx="98.4604" cy="145.69" r="2.24603" fill="black"/>
<circle cx="107.445" cy="145.69" r="2.24603" fill="black"/>
<circle cx="116.429" cy="145.69" r="2.24603" fill="black"/>
<circle cx="125.413" cy="145.69" r="2.24603" fill="black"/>
<circle cx="134.397" cy="145.69" r="2.24603" fill="black"/>
<circle cx="143.381" cy="145.69" r="2.24603" fill="black"/>
<circle cx="152.365" cy="145.69" r="2.24603" fill="black"/>
<circle cx="-0.365052" cy="154.516" r="2.24603" fill="black"/>
<circle cx="8.61908" cy="154.516" r="2.24603" fill="black"/>
<circle cx="17.6032" cy="154.516" r="2.24603" fill="black"/>
<circle cx="26.5873" cy="154.516" r="2.24603" fill="black"/>
<circle cx="35.5715" cy="154.516" r="2.24603" fill="black"/>
<circle cx="44.5556" cy="154.516" r="2.24603" fill="black"/>
<circle cx="53.5397" cy="154.516" r="2.24603" fill="black"/>
<circle cx="62.5239" cy="154.516" r="2.24603" fill="black"/>
<circle cx="71.508" cy="154.516" r="2.24603" fill="black"/>
<circle cx="80.4921" cy="154.516" r="2.24603" fill="black"/>
<circle cx="89.4763" cy="154.516" r="2.24603" fill="black"/>
<circle cx="98.4604" cy="154.516" r="2.24603" fill="black"/>
<circle cx="107.445" cy="154.516" r="2.24603" fill="black"/>
<circle cx="116.429" cy="154.516" r="2.24603" fill="black"/>
<circle cx="125.413" cy="154.516" r="2.24603" fill="black"/>
<circle cx="134.397" cy="154.516" r="2.24603" fill="black"/>
<circle cx="143.381" cy="154.516" r="2.24603" fill="black"/>
<circle cx="152.365" cy="154.516" r="2.24603" fill="black"/>
<circle cx="-0.365052" cy="163.341" r="2.24603" fill="black"/>
<circle cx="8.61908" cy="163.341" r="2.24603" fill="black"/>
<circle cx="17.6032" cy="163.341" r="2.24603" fill="black"/>
<circle cx="26.5873" cy="163.341" r="2.24603" fill="black"/>
<circle cx="35.5715" cy="163.341" r="2.24603" fill="black"/>
<circle cx="44.5556" cy="163.341" r="2.24603" fill="black"/>
<circle cx="53.5397" cy="163.341" r="2.24603" fill="black"/>
<circle cx="62.5239" cy="163.341" r="2.24603" fill="black"/>
<circle cx="71.508" cy="163.341" r="2.24603" fill="black"/>
<circle cx="80.4921" cy="163.341" r="2.24603" fill="black"/>
<circle cx="89.4763" cy="163.341" r="2.24603" fill="black"/>
<circle cx="98.4604" cy="163.341" r="2.24603" fill="black"/>
<circle cx="107.445" cy="163.341" r="2.24603" fill="black"/>
<circle cx="116.429" cy="163.341" r="2.24603" fill="black"/>
<circle cx="125.413" cy="163.341" r="2.24603" fill="black"/>
<circle cx="134.397" cy="163.341" r="2.24603" fill="black"/>
<circle cx="143.381" cy="163.341" r="2.24603" fill="black"/>
<circle cx="152.365" cy="163.341" r="2.24603" fill="black"/>
</g>
</svg>
